<svg width="31" height="30" viewBox="0 0 31 30" fill="none" xmlns="http://www.w3.org/2000/svg">
<path d="M12.6875 10.7812H18.3125" stroke="#2164F3" stroke-width="2" stroke-linecap="round" stroke-linejoin="round"/>
<path d="M27.4063 18.0821L22.2852 6.44534C21.7564 5.92221 21.0426 5.62878 20.2988 5.62878C19.555 5.62878 18.8413 5.92221 18.3125 6.44534V19.6875" stroke="#2164F3" stroke-width="2" stroke-linecap="round" stroke-linejoin="round"/>
<path d="M12.6875 19.6875V6.44534C12.1587 5.92221 11.445 5.62878 10.7012 5.62878C9.95737 5.62878 9.24359 5.92221 8.71484 6.44534L3.59375 18.0821" stroke="#2164F3" stroke-width="2" stroke-linecap="round" stroke-linejoin="round"/>
<path d="M8 24.375C10.5888 24.375 12.6875 22.2763 12.6875 19.6875C12.6875 17.0987 10.5888 15 8 15C5.41117 15 3.3125 17.0987 3.3125 19.6875C3.3125 22.2763 5.41117 24.375 8 24.375Z" stroke="#2164F3" stroke-width="2" stroke-linecap="round" stroke-linejoin="round"/>
<path d="M23 24.375C25.5888 24.375 27.6875 22.2763 27.6875 19.6875C27.6875 17.0987 25.5888 15 23 15C20.4112 15 18.3125 17.0987 18.3125 19.6875C18.3125 22.2763 20.4112 24.375 23 24.375Z" stroke="#2164F3" stroke-width="2" stroke-linecap="round" stroke-linejoin="round"/>
</svg>
