<svg width="31" height="30" viewBox="0 0 31 30" fill="none" xmlns="http://www.w3.org/2000/svg">
<path d="M2.375 25.3125H28.625" stroke="#2164F3" stroke-width="2" stroke-linecap="round" stroke-linejoin="round"/>
<path d="M17.375 25.3125V4.6875C17.375 4.43886 17.2762 4.2004 17.1004 4.02459C16.9246 3.84877 16.6861 3.75 16.4375 3.75H5.1875C4.93886 3.75 4.7004 3.84877 4.52459 4.02459C4.34877 4.2004 4.25 4.43886 4.25 4.6875V25.3125" stroke="#2164F3" stroke-width="2" stroke-linecap="round" stroke-linejoin="round"/>
<path d="M26.75 25.3125V12.1875C26.75 11.9389 26.6512 11.7004 26.4754 11.5246C26.2996 11.3488 26.0611 11.25 25.8125 11.25H17.375" stroke="#2164F3" stroke-width="2" stroke-linecap="round" stroke-linejoin="round"/>
<path d="M8 8.4375H11.75" stroke="#2164F3" stroke-width="2" stroke-linecap="round" stroke-linejoin="round"/>
<path d="M9.875 15.9375H13.625" stroke="#2164F3" stroke-width="2" stroke-linecap="round" stroke-linejoin="round"/>
<path d="M8 20.625H11.75" stroke="#2164F3" stroke-width="2" stroke-linecap="round" stroke-linejoin="round"/>
<path d="M21.125 20.625H23" stroke="#2164F3" stroke-width="2" stroke-linecap="round" stroke-linejoin="round"/>
<path d="M21.125 15.9375H23" stroke="#2164F3" stroke-width="2" stroke-linecap="round" stroke-linejoin="round"/>
</svg>
