<svg width="31" height="30" viewBox="0 0 31 30" fill="none" xmlns="http://www.w3.org/2000/svg">
<path d="M15.5 2.8125V27.1875" stroke="#2164F3" stroke-width="2" stroke-linecap="round" stroke-linejoin="round"/>
<path d="M22.0625 10.3125C22.0625 9.69693 21.9413 9.08739 21.7057 8.51867C21.4701 7.94996 21.1248 7.43321 20.6896 6.99794C20.2543 6.56266 19.7375 6.21738 19.1688 5.98181C18.6001 5.74625 17.9906 5.625 17.375 5.625H13.1562C11.913 5.625 10.7208 6.11886 9.84169 6.99794C8.96261 7.87701 8.46875 9.0693 8.46875 10.3125C8.46875 11.5557 8.96261 12.748 9.84169 13.6271C10.7208 14.5061 11.913 15 13.1562 15H18.3125C19.5557 15 20.748 15.4939 21.6271 16.3729C22.5061 17.252 23 18.4443 23 19.6875C23 20.9307 22.5061 22.123 21.6271 23.0021C20.748 23.8811 19.5557 24.375 18.3125 24.375H12.6875C11.4443 24.375 10.252 23.8811 9.37294 23.0021C8.49386 22.123 8 20.9307 8 19.6875" stroke="#2164F3" stroke-width="2" stroke-linecap="round" stroke-linejoin="round"/>
</svg>
