<svg width="170" height="187" viewBox="0 0 170 187" fill="none" xmlns="http://www.w3.org/2000/svg">
<path d="M6.776 5.27V6.572H2.646V9.442H5.866V10.744H2.646V15H1.05V5.27H6.776ZM9.06708 6.264C8.77774 6.264 8.53508 6.166 8.33908 5.97C8.14308 5.774 8.04508 5.53133 8.04508 5.242C8.04508 4.95267 8.14308 4.71 8.33908 4.514C8.53508 4.318 8.77774 4.22 9.06708 4.22C9.34708 4.22 9.58508 4.318 9.78108 4.514C9.97708 4.71 10.0751 4.95267 10.0751 5.242C10.0751 5.53133 9.97708 5.774 9.78108 5.97C9.58508 6.166 9.34708 6.264 9.06708 6.264ZM9.85108 7.286V15H8.25508V7.286H9.85108ZM15.8385 7.16C16.4452 7.16 16.9865 7.286 17.4625 7.538C17.9478 7.79 18.3258 8.16333 18.5965 8.658C18.8672 9.15267 19.0025 9.75 19.0025 10.45V15H17.4205V10.688C17.4205 9.99733 17.2478 9.47 16.9025 9.106C16.5572 8.73267 16.0858 8.546 15.4885 8.546C14.8912 8.546 14.4152 8.73267 14.0605 9.106C13.7152 9.47 13.5425 9.99733 13.5425 10.688V15H11.9465V7.286H13.5425V8.168C13.8038 7.85067 14.1352 7.60333 14.5365 7.426C14.9472 7.24867 15.3812 7.16 15.8385 7.16ZM20.5063 11.108C20.5063 10.3333 20.6649 9.64733 20.9823 9.05C21.3089 8.45267 21.7476 7.99067 22.2983 7.664C22.8583 7.328 23.4789 7.16 24.1603 7.16C24.6643 7.16 25.1589 7.272 25.6443 7.496C26.1389 7.71067 26.5309 8 26.8203 8.364V4.64H28.4303V15H26.8203V13.838C26.5589 14.2113 26.1949 14.5193 25.7283 14.762C25.2709 15.0047 24.7436 15.126 24.1463 15.126C23.4743 15.126 22.8583 14.958 22.2983 14.622C21.7476 14.2767 21.3089 13.8007 20.9823 13.194C20.6649 12.578 20.5063 11.8827 20.5063 11.108ZM26.8203 11.136C26.8203 10.604 26.7083 10.142 26.4843 9.75C26.2696 9.358 25.9849 9.05933 25.6303 8.854C25.2756 8.64867 24.8929 8.546 24.4823 8.546C24.0716 8.546 23.6889 8.64867 23.3343 8.854C22.9796 9.05 22.6903 9.344 22.4663 9.736C22.2516 10.1187 22.1443 10.576 22.1443 11.108C22.1443 11.64 22.2516 12.1067 22.4663 12.508C22.6903 12.9093 22.9796 13.2173 23.3343 13.432C23.6983 13.6373 24.0809 13.74 24.4823 13.74C24.8929 13.74 25.2756 13.6373 25.6303 13.432C25.9849 13.2267 26.2696 12.928 26.4843 12.536C26.7083 12.1347 26.8203 11.668 26.8203 11.136ZM41.1493 7.286V15H39.5533V14.09C39.3013 14.4073 38.9699 14.6593 38.5593 14.846C38.1579 15.0233 37.7286 15.112 37.2713 15.112C36.6646 15.112 36.1186 14.986 35.6333 14.734C35.1573 14.482 34.7793 14.1087 34.4993 13.614C34.2286 13.1193 34.0933 12.522 34.0933 11.822V7.286H35.6753V11.584C35.6753 12.2747 35.8479 12.8067 36.1933 13.18C36.5386 13.544 37.0099 13.726 37.6073 13.726C38.2046 13.726 38.6759 13.544 39.0213 13.18C39.3759 12.8067 39.5533 12.2747 39.5533 11.584V7.286H41.1493ZM46.0551 15.126C45.4484 15.126 44.9024 15.0187 44.4171 14.804C43.9411 14.58 43.5631 14.2813 43.2831 13.908C43.0031 13.5253 42.8537 13.1007 42.8351 12.634H44.4871C44.5151 12.9607 44.6691 13.236 44.9491 13.46C45.2384 13.6747 45.5977 13.782 46.0271 13.782C46.4751 13.782 46.8204 13.698 47.0631 13.53C47.3151 13.3527 47.4411 13.1287 47.4411 12.858C47.4411 12.5687 47.3011 12.354 47.0211 12.214C46.7504 12.074 46.3164 11.92 45.7191 11.752C45.1404 11.5933 44.6691 11.4393 44.3051 11.29C43.9411 11.1407 43.6237 10.912 43.3531 10.604C43.0917 10.296 42.9611 9.89 42.9611 9.386C42.9611 8.97533 43.0824 8.602 43.3251 8.266C43.5677 7.92067 43.9131 7.65 44.3611 7.454C44.8184 7.258 45.3411 7.16 45.9291 7.16C46.8064 7.16 47.5111 7.384 48.0431 7.832C48.5844 8.27067 48.8737 8.87267 48.9111 9.638H47.3151C47.2871 9.29267 47.1471 9.01733 46.8951 8.812C46.6431 8.60667 46.3024 8.504 45.8731 8.504C45.4531 8.504 45.1311 8.58333 44.9071 8.742C44.6831 8.90067 44.5711 9.11067 44.5711 9.372C44.5711 9.57733 44.6457 9.75 44.7951 9.89C44.9444 10.03 45.1264 10.142 45.3411 10.226C45.5557 10.3007 45.8731 10.3987 46.2931 10.52C46.8531 10.6693 47.3104 10.8233 47.6651 10.982C48.0291 11.1313 48.3417 11.3553 48.6031 11.654C48.8644 11.9527 48.9997 12.3493 49.0091 12.844C49.0091 13.2827 48.8877 13.6747 48.6451 14.02C48.4024 14.3653 48.0571 14.636 47.6091 14.832C47.1704 15.028 46.6524 15.126 46.0551 15.126ZM57.7163 15.126C56.9883 15.126 56.3303 14.9627 55.7423 14.636C55.1543 14.3 54.6923 13.8333 54.3563 13.236C54.0203 12.6293 53.8523 11.9293 53.8523 11.136C53.8523 10.352 54.025 9.65667 54.3703 9.05C54.7156 8.44333 55.187 7.97667 55.7843 7.65C56.3816 7.32333 57.049 7.16 57.7863 7.16C58.5236 7.16 59.191 7.32333 59.7883 7.65C60.3856 7.97667 60.857 8.44333 61.2023 9.05C61.5476 9.65667 61.7203 10.352 61.7203 11.136C61.7203 11.92 61.543 12.6153 61.1883 13.222C60.8336 13.8287 60.3483 14.3 59.7323 14.636C59.1256 14.9627 58.4536 15.126 57.7163 15.126ZM57.7163 13.74C58.127 13.74 58.5096 13.642 58.8643 13.446C59.2283 13.25 59.5223 12.956 59.7463 12.564C59.9703 12.172 60.0823 11.696 60.0823 11.136C60.0823 10.576 59.975 10.1047 59.7603 9.722C59.5456 9.33 59.261 9.036 58.9063 8.84C58.5516 8.644 58.169 8.546 57.7583 8.546C57.3476 8.546 56.965 8.644 56.6103 8.84C56.265 9.036 55.9896 9.33 55.7843 9.722C55.579 10.1047 55.4763 10.576 55.4763 11.136C55.4763 11.9667 55.6863 12.6107 56.1063 13.068C56.5356 13.516 57.0723 13.74 57.7163 13.74ZM67.19 7.16C67.7967 7.16 68.338 7.286 68.814 7.538C69.2994 7.79 69.6774 8.16333 69.948 8.658C70.2187 9.15267 70.354 9.75 70.354 10.45V15H68.772V10.688C68.772 9.99733 68.5994 9.47 68.254 9.106C67.9087 8.73267 67.4374 8.546 66.84 8.546C66.2427 8.546 65.7667 8.73267 65.412 9.106C65.0667 9.47 64.894 9.99733 64.894 10.688V15H63.298V7.286H64.894V8.168C65.1554 7.85067 65.4867 7.60333 65.888 7.426C66.2987 7.24867 66.7327 7.16 67.19 7.16ZM78.8266 15.126C78.2199 15.126 77.6739 15.0187 77.1886 14.804C76.7126 14.58 76.3346 14.2813 76.0546 13.908C75.7746 13.5253 75.6252 13.1007 75.6066 12.634H77.2586C77.2866 12.9607 77.4406 13.236 77.7206 13.46C78.0099 13.6747 78.3692 13.782 78.7986 13.782C79.2466 13.782 79.5919 13.698 79.8346 13.53C80.0866 13.3527 80.2126 13.1287 80.2126 12.858C80.2126 12.5687 80.0726 12.354 79.7926 12.214C79.5219 12.074 79.0879 11.92 78.4906 11.752C77.9119 11.5933 77.4406 11.4393 77.0766 11.29C76.7126 11.1407 76.3952 10.912 76.1246 10.604C75.8632 10.296 75.7326 9.89 75.7326 9.386C75.7326 8.97533 75.8539 8.602 76.0966 8.266C76.3392 7.92067 76.6846 7.65 77.1326 7.454C77.5899 7.258 78.1126 7.16 78.7006 7.16C79.5779 7.16 80.2826 7.384 80.8146 7.832C81.3559 8.27067 81.6452 8.87267 81.6826 9.638H80.0866C80.0586 9.29267 79.9186 9.01733 79.6666 8.812C79.4146 8.60667 79.0739 8.504 78.6446 8.504C78.2246 8.504 77.9026 8.58333 77.6786 8.742C77.4546 8.90067 77.3426 9.11067 77.3426 9.372C77.3426 9.57733 77.4172 9.75 77.5666 9.89C77.7159 10.03 77.8979 10.142 78.1126 10.226C78.3272 10.3007 78.6446 10.3987 79.0646 10.52C79.6246 10.6693 80.0819 10.8233 80.4366 10.982C80.8006 11.1313 81.1132 11.3553 81.3746 11.654C81.6359 11.9527 81.7712 12.3493 81.7806 12.844C81.7806 13.2827 81.6592 13.6747 81.4166 14.02C81.1739 14.3653 80.8286 14.636 80.3806 14.832C79.9419 15.028 79.4239 15.126 78.8266 15.126ZM86.8511 15.126C86.1231 15.126 85.4651 14.9627 84.8771 14.636C84.2891 14.3 83.8271 13.8333 83.4911 13.236C83.1551 12.6293 82.9871 11.9293 82.9871 11.136C82.9871 10.352 83.1597 9.65667 83.5051 9.05C83.8504 8.44333 84.3217 7.97667 84.9191 7.65C85.5164 7.32333 86.1837 7.16 86.9211 7.16C87.6584 7.16 88.3257 7.32333 88.9231 7.65C89.5204 7.97667 89.9917 8.44333 90.3371 9.05C90.6824 9.65667 90.8551 10.352 90.8551 11.136C90.8551 11.92 90.6777 12.6153 90.3231 13.222C89.9684 13.8287 89.4831 14.3 88.8671 14.636C88.2604 14.9627 87.5884 15.126 86.8511 15.126ZM86.8511 13.74C87.2617 13.74 87.6444 13.642 87.9991 13.446C88.3631 13.25 88.6571 12.956 88.8811 12.564C89.1051 12.172 89.2171 11.696 89.2171 11.136C89.2171 10.576 89.1097 10.1047 88.8951 9.722C88.6804 9.33 88.3957 9.036 88.0411 8.84C87.6864 8.644 87.3037 8.546 86.8931 8.546C86.4824 8.546 86.0997 8.644 85.7451 8.84C85.3997 9.036 85.1244 9.33 84.9191 9.722C84.7137 10.1047 84.6111 10.576 84.6111 11.136C84.6111 11.9667 84.8211 12.6107 85.2411 13.068C85.6704 13.516 86.2071 13.74 86.8511 13.74ZM91.9008 11.136C91.9008 10.3427 92.0595 9.64733 92.3768 9.05C92.7035 8.44333 93.1515 7.97667 93.7208 7.65C94.2901 7.32333 94.9435 7.16 95.6808 7.16C96.6141 7.16 97.3841 7.384 97.9908 7.832C98.6068 8.27067 99.0221 8.90067 99.2368 9.722H97.5148C97.3748 9.33933 97.1508 9.04067 96.8428 8.826C96.5348 8.61133 96.1475 8.504 95.6808 8.504C95.0275 8.504 94.5048 8.73733 94.1128 9.204C93.7301 9.66133 93.5388 10.3053 93.5388 11.136C93.5388 11.9667 93.7301 12.6153 94.1128 13.082C94.5048 13.5487 95.0275 13.782 95.6808 13.782C96.6048 13.782 97.2161 13.376 97.5148 12.564H99.2368C99.0128 13.348 98.5928 13.9733 97.9768 14.44C97.3608 14.8973 96.5955 15.126 95.6808 15.126C94.9435 15.126 94.2901 14.9627 93.7208 14.636C93.1515 14.3 92.7035 13.8333 92.3768 13.236C92.0595 12.6293 91.9008 11.9293 91.9008 11.136ZM101.639 6.264C101.35 6.264 101.107 6.166 100.911 5.97C100.715 5.774 100.617 5.53133 100.617 5.242C100.617 4.95267 100.715 4.71 100.911 4.514C101.107 4.318 101.35 4.22 101.639 4.22C101.919 4.22 102.157 4.318 102.353 4.514C102.549 4.71 102.647 4.95267 102.647 5.242C102.647 5.53133 102.549 5.774 102.353 5.97C102.157 6.166 101.919 6.264 101.639 6.264ZM102.423 7.286V15H100.827V7.286H102.423ZM103.987 11.108C103.987 10.3333 104.145 9.64733 104.463 9.05C104.789 8.45267 105.228 7.99067 105.779 7.664C106.339 7.328 106.955 7.16 107.627 7.16C108.233 7.16 108.761 7.28133 109.209 7.524C109.666 7.75733 110.03 8.05133 110.301 8.406V7.286H111.911V15H110.301V13.852C110.03 14.216 109.661 14.5193 109.195 14.762C108.728 15.0047 108.196 15.126 107.599 15.126C106.936 15.126 106.329 14.958 105.779 14.622C105.228 14.2767 104.789 13.8007 104.463 13.194C104.145 12.578 103.987 11.8827 103.987 11.108ZM110.301 11.136C110.301 10.604 110.189 10.142 109.965 9.75C109.75 9.358 109.465 9.05933 109.111 8.854C108.756 8.64867 108.373 8.546 107.963 8.546C107.552 8.546 107.169 8.64867 106.815 8.854C106.46 9.05 106.171 9.344 105.947 9.736C105.732 10.1187 105.625 10.576 105.625 11.108C105.625 11.64 105.732 12.1067 105.947 12.508C106.171 12.9093 106.46 13.2173 106.815 13.432C107.179 13.6373 107.561 13.74 107.963 13.74C108.373 13.74 108.756 13.6373 109.111 13.432C109.465 13.2267 109.75 12.928 109.965 12.536C110.189 12.1347 110.301 11.668 110.301 11.136ZM115.603 4.64V15H114.007V4.64H115.603ZM130.673 7.16C131.28 7.16 131.821 7.286 132.297 7.538C132.782 7.79 133.16 8.16333 133.431 8.658C133.711 9.15267 133.851 9.75 133.851 10.45V15H132.269V10.688C132.269 9.99733 132.096 9.47 131.751 9.106C131.406 8.73267 130.934 8.546 130.337 8.546C129.74 8.546 129.264 8.73267 128.909 9.106C128.564 9.47 128.391 9.99733 128.391 10.688V15H126.809V10.688C126.809 9.99733 126.636 9.47 126.291 9.106C125.946 8.73267 125.474 8.546 124.877 8.546C124.28 8.546 123.804 8.73267 123.449 9.106C123.104 9.47 122.931 9.99733 122.931 10.688V15H121.335V7.286H122.931V8.168C123.192 7.85067 123.524 7.60333 123.925 7.426C124.326 7.24867 124.756 7.16 125.213 7.16C125.829 7.16 126.38 7.29067 126.865 7.552C127.35 7.81333 127.724 8.19133 127.985 8.686C128.218 8.21933 128.582 7.85067 129.077 7.58C129.572 7.3 130.104 7.16 130.673 7.16ZM142.952 10.954C142.952 11.2433 142.933 11.5047 142.896 11.738H137.002C137.049 12.354 137.277 12.8487 137.688 13.222C138.099 13.5953 138.603 13.782 139.2 13.782C140.059 13.782 140.665 13.4227 141.02 12.704H142.742C142.509 13.4133 142.084 13.9967 141.468 14.454C140.861 14.902 140.105 15.126 139.2 15.126C138.463 15.126 137.8 14.9627 137.212 14.636C136.633 14.3 136.176 13.8333 135.84 13.236C135.513 12.6293 135.35 11.9293 135.35 11.136C135.35 10.3427 135.509 9.64733 135.826 9.05C136.153 8.44333 136.605 7.97667 137.184 7.65C137.772 7.32333 138.444 7.16 139.2 7.16C139.928 7.16 140.577 7.31867 141.146 7.636C141.715 7.95333 142.159 8.40133 142.476 8.98C142.793 9.54933 142.952 10.2073 142.952 10.954ZM141.286 10.45C141.277 9.862 141.067 9.39067 140.656 9.036C140.245 8.68133 139.737 8.504 139.13 8.504C138.579 8.504 138.108 8.68133 137.716 9.036C137.324 9.38133 137.091 9.85267 137.016 10.45H141.286ZM143.991 11.108C143.991 10.3333 144.149 9.64733 144.467 9.05C144.793 8.45267 145.232 7.99067 145.783 7.664C146.343 7.328 146.963 7.16 147.645 7.16C148.149 7.16 148.643 7.272 149.129 7.496C149.623 7.71067 150.015 8 150.305 8.364V4.64H151.915V15H150.305V13.838C150.043 14.2113 149.679 14.5193 149.213 14.762C148.755 15.0047 148.228 15.126 147.631 15.126C146.959 15.126 146.343 14.958 145.783 14.622C145.232 14.2767 144.793 13.8007 144.467 13.194C144.149 12.578 143.991 11.8827 143.991 11.108ZM150.305 11.136C150.305 10.604 150.193 10.142 149.969 9.75C149.754 9.358 149.469 9.05933 149.115 8.854C148.76 8.64867 148.377 8.546 147.967 8.546C147.556 8.546 147.173 8.64867 146.819 8.854C146.464 9.05 146.175 9.344 145.951 9.736C145.736 10.1187 145.629 10.576 145.629 11.108C145.629 11.64 145.736 12.1067 145.951 12.508C146.175 12.9093 146.464 13.2173 146.819 13.432C147.183 13.6373 147.565 13.74 147.967 13.74C148.377 13.74 148.76 13.6373 149.115 13.432C149.469 13.2267 149.754 12.928 149.969 12.536C150.193 12.1347 150.305 11.668 150.305 11.136ZM154.823 6.264C154.534 6.264 154.291 6.166 154.095 5.97C153.899 5.774 153.801 5.53133 153.801 5.242C153.801 4.95267 153.899 4.71 154.095 4.514C154.291 4.318 154.534 4.22 154.823 4.22C155.103 4.22 155.341 4.318 155.537 4.514C155.733 4.71 155.831 4.95267 155.831 5.242C155.831 5.53133 155.733 5.774 155.537 5.97C155.341 6.166 155.103 6.264 154.823 6.264ZM155.607 7.286V15H154.011V7.286H155.607ZM157.17 11.108C157.17 10.3333 157.329 9.64733 157.646 9.05C157.973 8.45267 158.412 7.99067 158.962 7.664C159.522 7.328 160.138 7.16 160.81 7.16C161.417 7.16 161.944 7.28133 162.392 7.524C162.85 7.75733 163.214 8.05133 163.484 8.406V7.286H165.094V15H163.484V13.852C163.214 14.216 162.845 14.5193 162.378 14.762C161.912 15.0047 161.38 15.126 160.782 15.126C160.12 15.126 159.513 14.958 158.962 14.622C158.412 14.2767 157.973 13.8007 157.646 13.194C157.329 12.578 157.17 11.8827 157.17 11.108ZM163.484 11.136C163.484 10.604 163.372 10.142 163.148 9.75C162.934 9.358 162.649 9.05933 162.294 8.854C161.94 8.64867 161.557 8.546 161.146 8.546C160.736 8.546 160.353 8.64867 159.998 8.854C159.644 9.05 159.354 9.344 159.13 9.736C158.916 10.1187 158.808 10.576 158.808 11.108C158.808 11.64 158.916 12.1067 159.13 12.508C159.354 12.9093 159.644 13.2173 159.998 13.432C160.362 13.6373 160.745 13.74 161.146 13.74C161.557 13.74 161.94 13.6373 162.294 13.432C162.649 13.2267 162.934 12.928 163.148 12.536C163.372 12.1347 163.484 11.668 163.484 11.136ZM167.835 15.098C167.545 15.098 167.303 15 167.107 14.804C166.911 14.608 166.813 14.3653 166.813 14.076C166.813 13.7867 166.911 13.544 167.107 13.348C167.303 13.152 167.545 13.054 167.835 13.054C168.115 13.054 168.353 13.152 168.549 13.348C168.745 13.544 168.843 13.7867 168.843 14.076C168.843 14.3653 168.745 14.608 168.549 14.804C168.353 15 168.115 15.098 167.835 15.098ZM167.835 9.218C167.545 9.218 167.303 9.12 167.107 8.924C166.911 8.728 166.813 8.48533 166.813 8.196C166.813 7.90667 166.911 7.664 167.107 7.468C167.303 7.272 167.545 7.174 167.835 7.174C168.115 7.174 168.353 7.272 168.549 7.468C168.745 7.664 168.843 7.90667 168.843 8.196C168.843 8.48533 168.745 8.728 168.549 8.924C168.353 9.12 168.115 9.218 167.835 9.218Z" fill="black"/>
<rect y="33" width="30" height="30" rx="15" fill="url(#paint0_linear_265_2546)"/>
<path d="M14.9998 39.6061C17.7328 39.6061 18.0568 39.6151 19.1368 39.6661C20.1358 39.7111 20.6788 39.8791 21.0388 40.0201C21.5158 40.2061 21.8578 40.4281 22.2148 40.7851C22.5718 41.1421 22.7938 41.4841 22.9798 41.9611C23.1208 42.3211 23.2858 42.8641 23.3338 43.8631C23.3818 44.9431 23.3938 45.2671 23.3938 48.0001C23.3938 50.7331 23.3848 51.0571 23.3338 52.1371C23.2888 53.1361 23.1208 53.6791 22.9798 54.0391C22.7938 54.5161 22.5718 54.8581 22.2148 55.2151C21.8578 55.5721 21.5158 55.7941 21.0388 55.9801C20.6788 56.1211 20.1358 56.2861 19.1368 56.3341C18.0568 56.3821 17.7328 56.3941 14.9998 56.3941C12.2668 56.3941 11.9428 56.3851 10.8628 56.3341C9.86381 56.2891 9.32081 56.1211 8.96081 55.9801C8.48381 55.7941 8.14181 55.5721 7.78481 55.2151C7.42781 54.8581 7.20581 54.5161 7.01981 54.0391C6.87881 53.6791 6.71381 53.1361 6.66581 52.1371C6.61781 51.0571 6.60581 50.7331 6.60581 48.0001C6.60581 45.2671 6.61481 44.9431 6.66581 43.8631C6.71081 42.8641 6.87881 42.3211 7.01981 41.9611C7.20581 41.4841 7.42781 41.1421 7.78481 40.7851C8.14181 40.4281 8.48381 40.2061 8.96081 40.0201C9.32081 39.8791 9.86381 39.7141 10.8628 39.6661C11.9428 39.6151 12.2668 39.6061 14.9998 39.6061ZM14.9998 37.7611C12.2188 37.7611 11.8708 37.7731 10.7788 37.8241C9.68981 37.8751 8.94581 38.0461 8.29181 38.3011C7.61981 38.5591 7.04681 38.9101 6.47981 39.4801C5.90981 40.0501 5.56181 40.6201 5.29781 41.2951C5.04581 41.9461 4.87181 42.6901 4.82081 43.7821C4.76981 44.8741 4.75781 45.2221 4.75781 48.0031C4.75781 50.7841 4.76981 51.1321 4.82081 52.2241C4.87181 53.3131 5.04281 54.0571 5.29781 54.7111C5.55881 55.3801 5.90981 55.9531 6.47981 56.5201C7.04981 57.0901 7.61981 57.4381 8.29481 57.7021C8.94581 57.9541 9.68981 58.1281 10.7818 58.1791C11.8738 58.2301 12.2218 58.2421 15.0028 58.2421C17.7838 58.2421 18.1318 58.2301 19.2238 58.1791C20.3128 58.1281 21.0568 57.9571 21.7108 57.7021C22.3798 57.4411 22.9528 57.0901 23.5198 56.5201C24.0898 55.9501 24.4378 55.3801 24.7018 54.7051C24.9538 54.0541 25.1278 53.3101 25.1788 52.2181C25.2298 51.1261 25.2418 50.7781 25.2418 47.9971C25.2418 45.2161 25.2298 44.8681 25.1788 43.7761C25.1278 42.6871 24.9568 41.9431 24.7018 41.2891C24.4408 40.6201 24.0898 40.0471 23.5198 39.4801C22.9498 38.9101 22.3798 38.5621 21.7048 38.2981C21.0538 38.0461 20.3098 37.8721 19.2178 37.8211C18.1288 37.7731 17.7808 37.7611 14.9998 37.7611Z" fill="white"/>
<path d="M14.9992 42.7411C12.0952 42.7411 9.74023 45.0961 9.74023 48.0001C9.74023 50.9042 12.0952 53.2591 14.9992 53.2591C17.9032 53.2591 20.2582 50.9042 20.2582 48.0001C20.2582 45.0961 17.9032 42.7411 14.9992 42.7411ZM14.9992 51.4141C13.1152 51.4141 11.5852 49.8871 11.5852 48.0001C11.5852 46.1131 13.1152 44.5861 14.9992 44.5861C16.8832 44.5861 18.4132 46.1131 18.4132 48.0001C18.4132 49.8871 16.8832 51.4141 14.9992 51.4141Z" fill="white"/>
<path d="M20.4663 43.764C21.1456 43.764 21.6963 43.2134 21.6963 42.534C21.6963 41.8547 21.1456 41.304 20.4663 41.304C19.787 41.304 19.2363 41.8547 19.2363 42.534C19.2363 43.2134 19.787 43.764 20.4663 43.764Z" fill="white"/>
<g clip-path="url(#clip0_265_2546)">
<rect x="42" y="33" width="30" height="30" rx="15" fill="#1877F2"/>
<path d="M62.8389 52.3361L63.5039 48.0002H59.3438V45.1865C59.3438 44.0002 59.925 42.8439 61.7883 42.8439H63.6797V39.1525C63.6797 39.1525 61.9632 38.8595 60.322 38.8595C56.8957 38.8595 54.6563 40.9361 54.6563 44.6955V48.0002H50.8477V52.3361H54.6563V62.8179C55.42 62.9378 56.2025 63.0002 57 63.0002C57.7975 63.0002 58.58 62.9378 59.3438 62.8179V52.3361H62.8389Z" fill="white"/>
</g>
<rect x="84" y="33" width="30" height="30" rx="15" fill="#FF0000"/>
<path d="M108.545 43.1731C108.317 42.3091 107.642 41.6311 106.784 41.4001C105.23 40.9801 99.0021 40.9801 99.0021 40.9801C99.0021 40.9801 92.7711 40.9801 91.2201 41.4001C90.3621 41.6311 89.6871 42.3091 89.4591 43.1731C89.0391 44.7361 89.0391 48.0001 89.0391 48.0001C89.0391 48.0001 89.0391 51.2641 89.4561 52.8271C89.6841 53.6911 90.3591 54.3691 91.2171 54.6001C92.7711 55.0201 98.9991 55.0201 98.9991 55.0201C98.9991 55.0201 105.23 55.0201 106.781 54.6001C107.639 54.3691 108.314 53.6911 108.542 52.8271C108.959 51.2641 108.959 48.0001 108.959 48.0001C108.959 48.0001 108.959 44.7361 108.545 43.1731ZM96.9621 50.9611V45.0391L102.167 48.0001L96.9621 50.9611Z" fill="white"/>
<rect x="126" y="33" width="30" height="30" rx="15" fill="#24ACFF"/>
<path d="M137.52 55.6199C144.594 55.6199 148.467 49.7579 148.467 44.6729C148.467 44.5079 148.467 44.3399 148.455 44.1749C149.208 43.6289 149.859 42.9569 150.375 42.1829C149.673 42.4949 148.929 42.6989 148.167 42.7889C148.971 42.3089 149.571 41.5529 149.859 40.6619C149.103 41.1089 148.278 41.4269 147.417 41.5949C145.959 40.0469 143.523 39.9719 141.975 41.4269C140.976 42.3659 140.553 43.7669 140.862 45.1019C137.769 44.9459 134.886 43.4849 132.933 41.0819C131.913 42.8399 132.432 45.0869 134.124 46.2179C133.512 46.1999 132.912 46.0349 132.378 45.7379C132.378 45.7529 132.378 45.7709 132.378 45.7859C132.378 47.6159 133.668 49.1939 135.465 49.5569C134.898 49.7099 134.304 49.7339 133.728 49.6229C134.232 51.1889 135.675 52.2629 137.322 52.2959C135.96 53.3669 134.277 53.9489 132.546 53.9459C132.24 53.9459 131.934 53.9279 131.631 53.8889C133.383 55.0199 135.432 55.6199 137.52 55.6169" fill="white"/>
<path d="M8.092 83.07C7.84 82.5847 7.49 82.2207 7.042 81.978C6.594 81.726 6.076 81.6 5.488 81.6C4.844 81.6 4.27 81.7447 3.766 82.034C3.262 82.3233 2.86533 82.734 2.576 83.266C2.296 83.798 2.156 84.414 2.156 85.114C2.156 85.814 2.296 86.4347 2.576 86.976C2.86533 87.508 3.262 87.9187 3.766 88.208C4.27 88.4973 4.844 88.642 5.488 88.642C6.356 88.642 7.06067 88.3993 7.602 87.914C8.14333 87.4287 8.47467 86.7707 8.596 85.94H4.942V84.666H10.304V85.912C10.2013 86.668 9.93067 87.3633 9.492 87.998C9.06267 88.6327 8.498 89.1413 7.798 89.524C7.10733 89.8973 6.33733 90.084 5.488 90.084C4.57333 90.084 3.738 89.874 2.982 89.454C2.226 89.0247 1.624 88.432 1.176 87.676C0.737333 86.92 0.518 86.066 0.518 85.114C0.518 84.162 0.737333 83.308 1.176 82.552C1.624 81.796 2.226 81.208 2.982 80.788C3.74733 80.3587 4.58267 80.144 5.488 80.144C6.524 80.144 7.44333 80.4007 8.246 80.914C9.058 81.418 9.646 82.1367 10.01 83.07H8.092ZM18.9481 85.954C18.9481 86.2433 18.9295 86.5047 18.8921 86.738H12.9981C13.0448 87.354 13.2735 87.8487 13.6841 88.222C14.0948 88.5953 14.5988 88.782 15.1961 88.782C16.0548 88.782 16.6615 88.4227 17.0161 87.704H18.7381C18.5048 88.4133 18.0801 88.9967 17.4641 89.454C16.8575 89.902 16.1015 90.126 15.1961 90.126C14.4588 90.126 13.7961 89.9627 13.2081 89.636C12.6295 89.3 12.1721 88.8333 11.8361 88.236C11.5095 87.6293 11.3461 86.9293 11.3461 86.136C11.3461 85.3427 11.5048 84.6473 11.8221 84.05C12.1488 83.4433 12.6015 82.9767 13.1801 82.65C13.7681 82.3233 14.4401 82.16 15.1961 82.16C15.9241 82.16 16.5728 82.3187 17.1421 82.636C17.7115 82.9533 18.1548 83.4013 18.4721 83.98C18.7895 84.5493 18.9481 85.2073 18.9481 85.954ZM17.2821 85.45C17.2728 84.862 17.0628 84.3907 16.6521 84.036C16.2415 83.6813 15.7328 83.504 15.1261 83.504C14.5755 83.504 14.1041 83.6813 13.7121 84.036C13.3201 84.3813 13.0868 84.8527 13.0121 85.45H17.2821ZM22.3808 83.588V87.858C22.3808 88.1473 22.4461 88.3573 22.5768 88.488C22.7168 88.6093 22.9501 88.67 23.2768 88.67H24.2568V90H22.9968C22.2781 90 21.7274 89.832 21.3448 89.496C20.9621 89.16 20.7708 88.614 20.7708 87.858V83.588H19.8608V82.286H20.7708V80.368H22.3808V82.286H24.2568V83.588H22.3808ZM31.2265 83.588V87.858C31.2265 88.1473 31.2918 88.3573 31.4225 88.488C31.5625 88.6093 31.7958 88.67 32.1225 88.67H33.1025V90H31.8425C31.1238 90 30.5731 89.832 30.1905 89.496C29.8078 89.16 29.6165 88.614 29.6165 87.858V83.588H28.7065V82.286H29.6165V80.368H31.2265V82.286H33.1025V83.588H31.2265ZM38.5634 82.16C39.1514 82.16 39.6741 82.286 40.1314 82.538C40.5981 82.79 40.9621 83.1633 41.2234 83.658C41.4941 84.1527 41.6294 84.75 41.6294 85.45V90H40.0474V85.688C40.0474 84.9973 39.8748 84.47 39.5294 84.106C39.1841 83.7327 38.7128 83.546 38.1154 83.546C37.5181 83.546 37.0421 83.7327 36.6874 84.106C36.3421 84.47 36.1694 84.9973 36.1694 85.688V90H34.5734V79.64H36.1694V83.182C36.4401 82.8553 36.7808 82.6033 37.1914 82.426C37.6114 82.2487 38.0688 82.16 38.5634 82.16ZM50.7352 85.954C50.7352 86.2433 50.7166 86.5047 50.6792 86.738H44.7852C44.8319 87.354 45.0606 87.8487 45.4712 88.222C45.8819 88.5953 46.3859 88.782 46.9832 88.782C47.8419 88.782 48.4486 88.4227 48.8032 87.704H50.5252C50.2919 88.4133 49.8672 88.9967 49.2512 89.454C48.6446 89.902 47.8886 90.126 46.9832 90.126C46.2459 90.126 45.5832 89.9627 44.9952 89.636C44.4166 89.3 43.9592 88.8333 43.6232 88.236C43.2966 87.6293 43.1332 86.9293 43.1332 86.136C43.1332 85.3427 43.2919 84.6473 43.6092 84.05C43.9359 83.4433 44.3886 82.9767 44.9672 82.65C45.5552 82.3233 46.2272 82.16 46.9832 82.16C47.7112 82.16 48.3599 82.3187 48.9292 82.636C49.4986 82.9533 49.9419 83.4013 50.2592 83.98C50.5766 84.5493 50.7352 85.2073 50.7352 85.954ZM49.0692 85.45C49.0599 84.862 48.8499 84.3907 48.4392 84.036C48.0286 83.6813 47.5199 83.504 46.9132 83.504C46.3626 83.504 45.8912 83.6813 45.4992 84.036C45.1072 84.3813 44.8739 84.8527 44.7992 85.45H49.0692ZM57.5386 80.27V90H55.9426V80.27H57.5386ZM63.526 82.16C64.1327 82.16 64.674 82.286 65.15 82.538C65.6353 82.79 66.0133 83.1633 66.284 83.658C66.5547 84.1527 66.69 84.75 66.69 85.45V90H65.108V85.688C65.108 84.9973 64.9353 84.47 64.59 84.106C64.2447 83.7327 63.7733 83.546 63.176 83.546C62.5787 83.546 62.1027 83.7327 61.748 84.106C61.4027 84.47 61.23 84.9973 61.23 85.688V90H59.634V82.286H61.23V83.168C61.4913 82.8507 61.8227 82.6033 62.224 82.426C62.6347 82.2487 63.0687 82.16 63.526 82.16ZM68.1938 86.108C68.1938 85.3333 68.3524 84.6473 68.6698 84.05C68.9964 83.4527 69.4351 82.9907 69.9858 82.664C70.5458 82.328 71.1664 82.16 71.8478 82.16C72.3518 82.16 72.8464 82.272 73.3318 82.496C73.8264 82.7107 74.2184 83 74.5078 83.364V79.64H76.1178V90H74.5078V88.838C74.2464 89.2113 73.8824 89.5193 73.4158 89.762C72.9584 90.0047 72.4311 90.126 71.8338 90.126C71.1618 90.126 70.5458 89.958 69.9858 89.622C69.4351 89.2767 68.9964 88.8007 68.6698 88.194C68.3524 87.578 68.1938 86.8827 68.1938 86.108ZM74.5078 86.136C74.5078 85.604 74.3958 85.142 74.1718 84.75C73.9571 84.358 73.6724 84.0593 73.3178 83.854C72.9631 83.6487 72.5804 83.546 72.1698 83.546C71.7591 83.546 71.3764 83.6487 71.0218 83.854C70.6671 84.05 70.3778 84.344 70.1538 84.736C69.9391 85.1187 69.8318 85.576 69.8318 86.108C69.8318 86.64 69.9391 87.1067 70.1538 87.508C70.3778 87.9093 70.6671 88.2173 71.0218 88.432C71.3858 88.6373 71.7684 88.74 72.1698 88.74C72.5804 88.74 72.9631 88.6373 73.3178 88.432C73.6724 88.2267 73.9571 87.928 74.1718 87.536C74.3958 87.1347 74.5078 86.668 74.5078 86.136ZM85.2841 85.954C85.2841 86.2433 85.2654 86.5047 85.2281 86.738H79.3341C79.3807 87.354 79.6094 87.8487 80.0201 88.222C80.4307 88.5953 80.9347 88.782 81.5321 88.782C82.3907 88.782 82.9974 88.4227 83.3521 87.704H85.0741C84.8407 88.4133 84.4161 88.9967 83.8001 89.454C83.1934 89.902 82.4374 90.126 81.5321 90.126C80.7947 90.126 80.1321 89.9627 79.5441 89.636C78.9654 89.3 78.5081 88.8333 78.1721 88.236C77.8454 87.6293 77.6821 86.9293 77.6821 86.136C77.6821 85.3427 77.8407 84.6473 78.1581 84.05C78.4847 83.4433 78.9374 82.9767 79.5161 82.65C80.1041 82.3233 80.7761 82.16 81.5321 82.16C82.2601 82.16 82.9087 82.3187 83.4781 82.636C84.0474 82.9533 84.4907 83.4013 84.8081 83.98C85.1254 84.5493 85.2841 85.2073 85.2841 85.954ZM83.6181 85.45C83.6087 84.862 83.3987 84.3907 82.9881 84.036C82.5774 83.6813 82.0687 83.504 81.4621 83.504C80.9114 83.504 80.4401 83.6813 80.0481 84.036C79.6561 84.3813 79.4227 84.8527 79.3481 85.45H83.6181ZM93.9247 85.954C93.9247 86.2433 93.906 86.5047 93.8687 86.738H87.9747C88.0214 87.354 88.25 87.8487 88.6607 88.222C89.0714 88.5953 89.5754 88.782 90.1727 88.782C91.0314 88.782 91.638 88.4227 91.9927 87.704H93.7147C93.4814 88.4133 93.0567 88.9967 92.4407 89.454C91.834 89.902 91.078 90.126 90.1727 90.126C89.4354 90.126 88.7727 89.9627 88.1847 89.636C87.606 89.3 87.1487 88.8333 86.8127 88.236C86.486 87.6293 86.3227 86.9293 86.3227 86.136C86.3227 85.3427 86.4814 84.6473 86.7987 84.05C87.1254 83.4433 87.578 82.9767 88.1567 82.65C88.7447 82.3233 89.4167 82.16 90.1727 82.16C90.9007 82.16 91.5494 82.3187 92.1187 82.636C92.688 82.9533 93.1314 83.4013 93.4487 83.98C93.766 84.5493 93.9247 85.2073 93.9247 85.954ZM92.2587 85.45C92.2494 84.862 92.0394 84.3907 91.6287 84.036C91.218 83.6813 90.7094 83.504 90.1027 83.504C89.552 83.504 89.0807 83.6813 88.6887 84.036C88.2967 84.3813 88.0634 84.8527 87.9887 85.45H92.2587ZM94.9633 86.108C94.9633 85.3333 95.122 84.6473 95.4393 84.05C95.766 83.4527 96.2046 82.9907 96.7553 82.664C97.3153 82.328 97.936 82.16 98.6173 82.16C99.1213 82.16 99.616 82.272 100.101 82.496C100.596 82.7107 100.988 83 101.277 83.364V79.64H102.887V90H101.277V88.838C101.016 89.2113 100.652 89.5193 100.185 89.762C99.728 90.0047 99.2006 90.126 98.6033 90.126C97.9313 90.126 97.3153 89.958 96.7553 89.622C96.2046 89.2767 95.766 88.8007 95.4393 88.194C95.122 87.578 94.9633 86.8827 94.9633 86.108ZM101.277 86.136C101.277 85.604 101.165 85.142 100.941 84.75C100.727 84.358 100.442 84.0593 100.087 83.854C99.7326 83.6487 99.35 83.546 98.9393 83.546C98.5286 83.546 98.146 83.6487 97.7913 83.854C97.4366 84.05 97.1473 84.344 96.9233 84.736C96.7086 85.1187 96.6013 85.576 96.6013 86.108C96.6013 86.64 96.7086 87.1067 96.9233 87.508C97.1473 87.9093 97.4366 88.2173 97.7913 88.432C98.1553 88.6373 98.538 88.74 98.9393 88.74C99.35 88.74 99.7326 88.6373 100.087 88.432C100.442 88.2267 100.727 87.928 100.941 87.536C101.165 87.1347 101.277 86.668 101.277 86.136ZM114.486 88.012H110.412L109.712 90H108.046L111.532 80.256H113.38L116.866 90H115.186L114.486 88.012ZM114.038 86.71L112.456 82.188L110.86 86.71H114.038ZM119.978 83.42C120.249 83.0653 120.617 82.7667 121.084 82.524C121.551 82.2813 122.078 82.16 122.666 82.16C123.338 82.16 123.949 82.328 124.5 82.664C125.06 82.9907 125.499 83.4527 125.816 84.05C126.133 84.6473 126.292 85.3333 126.292 86.108C126.292 86.8827 126.133 87.578 125.816 88.194C125.499 88.8007 125.06 89.2767 124.5 89.622C123.949 89.958 123.338 90.126 122.666 90.126C122.078 90.126 121.555 90.0093 121.098 89.776C120.641 89.5333 120.267 89.2347 119.978 88.88V93.668H118.382V82.286H119.978V83.42ZM124.668 86.108C124.668 85.576 124.556 85.1187 124.332 84.736C124.117 84.344 123.828 84.05 123.464 83.854C123.109 83.6487 122.727 83.546 122.316 83.546C121.915 83.546 121.532 83.6487 121.168 83.854C120.813 84.0593 120.524 84.358 120.3 84.75C120.085 85.142 119.978 85.604 119.978 86.136C119.978 86.668 120.085 87.1347 120.3 87.536C120.524 87.928 120.813 88.2267 121.168 88.432C121.532 88.6373 121.915 88.74 122.316 88.74C122.727 88.74 123.109 88.6373 123.464 88.432C123.828 88.2173 124.117 87.9093 124.332 87.508C124.556 87.1067 124.668 86.64 124.668 86.108ZM129.466 83.42C129.737 83.0653 130.106 82.7667 130.572 82.524C131.039 82.2813 131.566 82.16 132.154 82.16C132.826 82.16 133.438 82.328 133.988 82.664C134.548 82.9907 134.987 83.4527 135.304 84.05C135.622 84.6473 135.78 85.3333 135.78 86.108C135.78 86.8827 135.622 87.578 135.304 88.194C134.987 88.8007 134.548 89.2767 133.988 89.622C133.438 89.958 132.826 90.126 132.154 90.126C131.566 90.126 131.044 90.0093 130.586 89.776C130.129 89.5333 129.756 89.2347 129.466 88.88V93.668H127.87V82.286H129.466V83.42ZM134.156 86.108C134.156 85.576 134.044 85.1187 133.82 84.736C133.606 84.344 133.316 84.05 132.952 83.854C132.598 83.6487 132.215 83.546 131.804 83.546C131.403 83.546 131.02 83.6487 130.656 83.854C130.302 84.0593 130.012 84.358 129.788 84.75C129.574 85.142 129.466 85.604 129.466 86.136C129.466 86.668 129.574 87.1347 129.788 87.536C130.012 87.928 130.302 88.2267 130.656 88.432C131.02 88.6373 131.403 88.74 131.804 88.74C132.215 88.74 132.598 88.6373 132.952 88.432C133.316 88.2173 133.606 87.9093 133.82 87.508C134.044 87.1067 134.156 86.64 134.156 86.108Z" fill="black"/>
<g clip-path="url(#clip1_265_2546)">
<path d="M120.553 145.172H4.3787C1.96481 145.172 0 143.194 0 140.774V112.392C0 109.97 1.96481 108 4.3787 108H120.553C122.966 108 125 109.97 125 112.392V140.774C125 143.194 122.966 145.172 120.553 145.172Z" fill="#A6A6A6"/>
<path d="M124.104 140.775C124.104 142.741 122.517 144.334 120.554 144.334H4.37885C2.41681 144.334 0.824219 142.741 0.824219 140.775V112.391C0.824219 110.425 2.41681 108.827 4.37885 108.827H120.553C122.517 108.827 124.103 110.425 124.103 112.391L124.104 140.775Z" fill="black"/>
<path d="M27.8957 126.385C27.8688 123.39 30.3392 121.933 30.4522 121.865C29.0531 119.818 26.8846 119.538 26.1225 119.516C24.3012 119.324 22.5346 120.61 21.6068 120.61C20.6605 120.61 19.2318 119.534 17.692 119.566C15.7105 119.597 13.8568 120.748 12.8401 122.536C10.742 126.182 12.3068 131.539 14.317 134.486C15.3225 135.929 16.4975 137.541 18.0355 137.484C19.5401 137.422 20.1022 136.521 21.9179 136.521C23.717 136.521 24.2448 137.484 25.8133 137.448C27.4281 137.422 28.4448 135.998 29.4151 134.542C30.5772 132.888 31.0438 131.259 31.0624 131.175C31.0244 131.162 27.9262 129.975 27.8957 126.385Z" fill="white"/>
<path d="M24.933 117.577C25.7423 116.562 26.296 115.18 26.1423 113.777C24.971 113.83 23.5062 114.591 22.6627 115.584C21.9164 116.459 21.2497 117.894 21.4219 119.244C22.7377 119.342 24.0886 118.577 24.933 117.577Z" fill="white"/>
<path d="M49.6704 137.277H47.5676L46.4157 133.644H42.412L41.3148 137.277H39.2676L43.2342 124.91H45.6842L49.6704 137.277ZM46.0685 132.12L45.0268 128.891C44.9167 128.561 44.7102 127.784 44.4055 126.561H44.3685C44.2472 127.087 44.0518 127.864 43.7833 128.891L42.7602 132.12H46.0685Z" fill="white"/>
<path d="M59.8709 132.708C59.8709 134.225 59.4626 135.424 58.6459 136.304C57.9145 137.087 57.0061 137.478 55.9219 137.478C54.7515 137.478 53.9107 137.056 53.3987 136.213H53.3617V140.91H51.3876V131.295C51.3876 130.341 51.3626 129.363 51.3145 128.359H53.0506L53.1607 129.773H53.1978C53.8561 128.708 54.8552 128.176 56.1959 128.176C57.2441 128.176 58.1191 128.591 58.8191 129.423C59.5209 130.256 59.8709 131.351 59.8709 132.708ZM57.8598 132.781C57.8598 131.913 57.6654 131.197 57.2746 130.634C56.8478 130.047 56.2746 129.753 55.5561 129.753C55.0691 129.753 54.6265 129.917 54.2311 130.239C53.8348 130.564 53.5756 130.989 53.4543 131.515C53.3932 131.76 53.3626 131.961 53.3626 132.119V133.606C53.3626 134.255 53.5607 134.802 53.957 135.249C54.3533 135.696 54.8682 135.919 55.5015 135.919C56.245 135.919 56.8237 135.631 57.2376 135.057C57.6524 134.481 57.8598 133.723 57.8598 132.781Z" fill="white"/>
<path d="M70.0907 132.708C70.0907 134.225 69.6824 135.424 68.8648 136.304C68.1342 137.087 67.2259 137.478 66.1416 137.478C64.9713 137.478 64.1305 137.056 63.6194 136.213H63.5824V140.91H61.6083V131.295C61.6083 130.341 61.5833 129.363 61.5352 128.359H63.2713L63.3815 129.773H63.4185C64.0759 128.708 65.075 128.176 66.4166 128.176C67.4639 128.176 68.3389 128.591 69.0407 129.423C69.7398 130.256 70.0907 131.351 70.0907 132.708ZM68.0796 132.781C68.0796 131.913 67.8842 131.197 67.4935 130.634C67.0666 130.047 66.4953 129.753 65.7759 129.753C65.2879 129.753 64.8463 129.917 64.45 130.239C64.0537 130.564 63.7953 130.989 63.674 131.515C63.6139 131.76 63.5824 131.961 63.5824 132.119V133.606C63.5824 134.255 63.7805 134.802 64.175 135.249C64.5713 135.695 65.0861 135.919 65.7213 135.919C66.4648 135.919 67.0435 135.631 67.4574 135.057C67.8722 134.481 68.0796 133.723 68.0796 132.781Z" fill="white"/>
<path d="M81.5175 133.809C81.5175 134.86 81.1536 135.716 80.4231 136.377C79.6203 137.099 78.5027 137.46 77.0666 137.46C75.7406 137.46 74.6777 137.203 73.873 136.689L74.3305 135.038C75.1971 135.564 76.1481 135.828 77.1842 135.828C77.9277 135.828 78.5064 135.659 78.9221 135.322C79.336 134.986 79.5425 134.534 79.5425 133.971C79.5425 133.469 79.3721 133.047 79.0305 132.704C78.6906 132.361 78.123 132.042 77.3305 131.747C75.173 130.94 74.0953 129.757 74.0953 128.201C74.0953 127.184 74.4731 126.351 75.2295 125.702C75.9832 125.053 76.9888 124.728 78.2462 124.728C79.3675 124.728 80.299 124.924 81.0425 125.316L80.549 126.931C79.8545 126.552 79.0693 126.362 78.1906 126.362C77.4962 126.362 76.9536 126.534 76.5647 126.876C76.236 127.182 76.0712 127.554 76.0712 127.996C76.0712 128.485 76.2592 128.889 76.6369 129.207C76.9656 129.5 77.5629 129.818 78.4295 130.161C79.4897 130.589 80.2684 131.09 80.7693 131.665C81.2684 132.237 81.5175 132.954 81.5175 133.809Z" fill="white"/>
<path d="M88.0439 129.846H85.868V134.176C85.868 135.277 86.2513 135.827 87.0198 135.827C87.3726 135.827 87.6652 135.796 87.8967 135.735L87.9513 137.239C87.5624 137.385 87.0504 137.459 86.4161 137.459C85.6365 137.459 85.0273 137.22 84.5874 136.743C84.1495 136.266 83.9291 135.465 83.9291 134.339V129.844H82.6328V128.357H83.9291V126.724L85.868 126.137V128.357H88.0439V129.846Z" fill="white"/>
<path d="M97.861 132.744C97.861 134.115 97.4702 135.241 96.6906 136.121C95.873 137.027 94.7878 137.478 93.4351 137.478C92.1314 137.478 91.0934 137.044 90.3193 136.176C89.5452 135.308 89.1582 134.213 89.1582 132.892C89.1582 131.51 89.5564 130.378 90.3554 129.498C91.1526 128.617 92.2286 128.177 93.5814 128.177C94.8851 128.177 95.9341 128.611 96.7258 129.48C97.4832 130.323 97.861 131.411 97.861 132.744ZM95.8128 132.809C95.8128 131.986 95.6378 131.281 95.2832 130.693C94.8693 129.981 94.2776 129.626 93.511 129.626C92.7175 129.626 92.1147 129.982 91.7008 130.693C91.3462 131.282 91.1712 131.998 91.1712 132.846C91.1712 133.668 91.3462 134.374 91.7008 134.961C92.1277 135.673 92.7239 136.028 93.4934 136.028C94.2471 136.028 94.8388 135.665 95.2656 134.942C95.6295 134.343 95.8128 133.63 95.8128 132.809Z" fill="white"/>
<path d="M104.277 130.102C104.082 130.065 103.873 130.047 103.655 130.047C102.96 130.047 102.423 130.31 102.046 130.837C101.717 131.301 101.552 131.889 101.552 132.598V137.277H99.579L99.5975 131.167C99.5975 130.14 99.5725 129.204 99.5234 128.36H101.243L101.315 130.066H101.37C101.578 129.48 101.907 129.008 102.357 128.654C102.797 128.335 103.272 128.176 103.784 128.176C103.966 128.176 104.131 128.189 104.277 128.212V130.102Z" fill="white"/>
<path d="M113.107 132.396C113.107 132.751 113.084 133.05 113.035 133.295H107.113C107.136 134.176 107.422 134.849 107.972 135.314C108.471 135.729 109.116 135.938 109.909 135.938C110.786 135.938 111.586 135.797 112.305 135.516L112.615 136.891C111.774 137.259 110.781 137.442 109.636 137.442C108.258 137.442 107.177 137.035 106.39 136.222C105.604 135.409 105.211 134.317 105.211 132.947C105.211 131.602 105.577 130.483 106.309 129.589C107.076 128.636 108.112 128.159 109.416 128.159C110.696 128.159 111.666 128.636 112.324 129.589C112.845 130.347 113.107 131.284 113.107 132.396ZM111.225 131.882C111.238 131.295 111.109 130.787 110.841 130.359C110.5 129.808 109.975 129.533 109.268 129.533C108.623 129.533 108.098 129.801 107.697 130.34C107.368 130.769 107.173 131.283 107.113 131.881H111.225V131.882Z" fill="white"/>
<path d="M45.4173 117.301C45.4173 118.395 45.0905 119.219 44.4377 119.771C43.8331 120.282 42.9738 120.537 41.8609 120.537C41.309 120.537 40.8368 120.513 40.4414 120.465V114.488C40.9571 114.405 41.5127 114.362 42.1127 114.362C43.1729 114.362 43.972 114.593 44.5109 115.056C45.1146 115.579 45.4173 116.327 45.4173 117.301ZM44.3942 117.328C44.3942 116.619 44.2071 116.076 43.8331 115.696C43.459 115.318 42.9127 115.129 42.1933 115.129C41.8877 115.129 41.6275 115.149 41.4118 115.192V119.735C41.5312 119.754 41.7497 119.762 42.0673 119.762C42.8099 119.762 43.3831 119.555 43.7868 119.14C44.1905 118.726 44.3942 118.122 44.3942 117.328Z" fill="white"/>
<path d="M50.8414 118.257C50.8414 118.93 50.6497 119.482 50.2664 119.915C49.8646 120.361 49.3321 120.583 48.6673 120.583C48.0266 120.583 47.5164 120.37 47.1359 119.942C46.7562 119.516 46.5664 118.978 46.5664 118.329C46.5664 117.651 46.7618 117.094 47.1544 116.662C47.547 116.23 48.0747 116.013 48.7396 116.013C49.3803 116.013 49.8951 116.226 50.2849 116.653C50.6553 117.067 50.8414 117.602 50.8414 118.257ZM49.8349 118.288C49.8349 117.884 49.7479 117.537 49.5747 117.248C49.371 116.899 49.0812 116.724 48.7044 116.724C48.3146 116.724 48.0183 116.899 47.8146 117.248C47.6405 117.537 47.5544 117.89 47.5544 118.306C47.5544 118.71 47.6414 119.057 47.8146 119.346C48.0247 119.695 48.3173 119.87 48.6951 119.87C49.0655 119.87 49.3562 119.692 49.5655 119.337C49.7451 119.042 49.8349 118.693 49.8349 118.288Z" fill="white"/>
<path d="M58.117 116.103L56.7513 120.483H55.8624L55.2967 118.581C55.1532 118.106 55.0365 117.634 54.9457 117.166H54.9282C54.8439 117.647 54.7272 118.118 54.5772 118.581L53.9763 120.483H53.0772L51.793 116.103H52.7902L53.2837 118.185C53.4032 118.678 53.5013 119.147 53.58 119.591H53.5976C53.6698 119.225 53.7893 118.759 53.9578 118.194L54.5772 116.103H55.368L55.9615 118.15C56.105 118.649 56.2217 119.129 56.3115 119.592H56.3383C56.4041 119.141 56.5032 118.661 56.6346 118.15L57.1643 116.103H58.117V116.103Z" fill="white"/>
<path d="M63.1462 120.483H62.1759V117.974C62.1759 117.201 61.8833 116.814 61.2962 116.814C61.0083 116.814 60.7759 116.92 60.5953 117.133C60.4166 117.346 60.3259 117.597 60.3259 117.884V120.482H59.3555V117.354C59.3555 116.97 59.3435 116.552 59.3203 116.101H60.1731L60.2185 116.786H60.2453C60.3583 116.573 60.5268 116.397 60.7481 116.257C61.0111 116.093 61.3055 116.011 61.6277 116.011C62.0351 116.011 62.374 116.143 62.6435 116.407C62.9786 116.732 63.1462 117.216 63.1462 117.859V120.483Z" fill="white"/>
<path d="M65.823 120.483H64.8535V114.092H65.823V120.483Z" fill="white"/>
<path d="M71.5367 118.257C71.5367 118.93 71.3451 119.482 70.9617 119.915C70.5599 120.361 70.0265 120.583 69.3626 120.583C68.721 120.583 68.2108 120.37 67.8312 119.942C67.4515 119.516 67.2617 118.978 67.2617 118.329C67.2617 117.651 67.4571 117.094 67.8497 116.662C68.2423 116.23 68.7701 116.013 69.4339 116.013C70.0756 116.013 70.5895 116.226 70.9802 116.653C71.3506 117.067 71.5367 117.602 71.5367 118.257ZM70.5293 118.288C70.5293 117.884 70.4423 117.537 70.2691 117.248C70.0663 116.899 69.7756 116.724 69.3997 116.724C69.0089 116.724 68.7126 116.899 68.5099 117.248C68.3358 117.537 68.2497 117.89 68.2497 118.306C68.2497 118.71 68.3367 119.057 68.5099 119.346C68.7201 119.695 69.0126 119.87 69.3904 119.87C69.7608 119.87 70.0506 119.692 70.2599 119.337C70.4404 119.042 70.5293 118.693 70.5293 118.288Z" fill="white"/>
<path d="M76.2318 120.483H75.3605L75.2883 119.979H75.2614C74.9633 120.381 74.5383 120.583 73.9864 120.583C73.5744 120.583 73.241 120.45 72.9901 120.186C72.7623 119.946 72.6484 119.648 72.6484 119.294C72.6484 118.759 72.8707 118.351 73.3179 118.068C73.7642 117.786 74.392 117.647 75.2003 117.654V117.572C75.2003 116.995 74.8984 116.707 74.2938 116.707C73.8633 116.707 73.4836 116.815 73.1558 117.031L72.9586 116.392C73.3642 116.14 73.8651 116.013 74.4558 116.013C75.5966 116.013 76.1688 116.617 76.1688 117.826V119.439C76.1688 119.876 76.1901 120.225 76.2318 120.483ZM75.2244 118.978V118.302C74.154 118.284 73.6188 118.578 73.6188 119.185C73.6188 119.414 73.6799 119.585 73.8049 119.699C73.9299 119.813 74.0892 119.87 74.279 119.87C74.492 119.87 74.691 119.802 74.8725 119.667C75.0549 119.532 75.167 119.36 75.2086 119.149C75.2188 119.101 75.2244 119.044 75.2244 118.978Z" fill="white"/>
<path d="M81.7467 120.483H80.8856L80.8403 119.78H80.8134C80.5384 120.315 80.0699 120.583 79.4116 120.583C78.8856 120.583 78.4477 120.375 78.1004 119.961C77.7532 119.547 77.5801 119.008 77.5801 118.348C77.5801 117.639 77.768 117.064 78.1458 116.626C78.5116 116.217 78.9597 116.012 79.493 116.012C80.0791 116.012 80.4893 116.21 80.7227 116.607H80.7412V114.092H81.7125V119.303C81.7125 119.73 81.7236 120.123 81.7467 120.483ZM80.7412 118.636V117.905C80.7412 117.779 80.7319 117.677 80.7143 117.599C80.6597 117.365 80.5421 117.168 80.3634 117.009C80.1829 116.85 79.9653 116.77 79.7143 116.77C79.3523 116.77 79.069 116.914 78.8606 117.203C78.6541 117.492 78.5495 117.861 78.5495 118.312C78.5495 118.745 78.6486 119.096 78.8477 119.366C79.0579 119.654 79.3412 119.798 79.6958 119.798C80.0143 119.798 80.269 119.679 80.4625 119.438C80.6495 119.216 80.7412 118.948 80.7412 118.636Z" fill="white"/>
<path d="M90.0445 118.257C90.0445 118.93 89.8529 119.482 89.4695 119.915C89.0677 120.361 88.5362 120.583 87.8705 120.583C87.2306 120.583 86.7205 120.37 86.339 119.942C85.9594 119.516 85.7695 118.978 85.7695 118.329C85.7695 117.651 85.9649 117.094 86.3575 116.662C86.7501 116.23 87.2779 116.013 87.9436 116.013C88.5834 116.013 89.0992 116.226 89.4881 116.653C89.8584 117.067 90.0445 117.602 90.0445 118.257ZM89.039 118.288C89.039 117.884 88.9519 117.537 88.7788 117.248C88.5742 116.899 88.2853 116.724 87.9075 116.724C87.5186 116.724 87.2223 116.899 87.0177 117.248C86.8436 117.537 86.7575 117.89 86.7575 118.306C86.7575 118.71 86.8445 119.057 87.0177 119.346C87.2279 119.695 87.5205 119.87 87.8982 119.87C88.2686 119.87 88.5603 119.692 88.7695 119.337C88.9482 119.042 89.039 118.693 89.039 118.288Z" fill="white"/>
<path d="M95.2625 120.483H94.2931V117.974C94.2931 117.201 94.0005 116.814 93.4125 116.814C93.1245 116.814 92.8921 116.92 92.7125 117.133C92.5329 117.346 92.4431 117.597 92.4431 117.884V120.482H91.4718V117.354C91.4718 116.97 91.4606 116.552 91.4375 116.101H92.2894L92.3347 116.786H92.3616C92.4755 116.573 92.644 116.397 92.8644 116.257C93.1282 116.093 93.4218 116.011 93.7449 116.011C94.1514 116.011 94.4903 116.143 94.7597 116.407C95.0958 116.732 95.2625 117.216 95.2625 117.859V120.483Z" fill="white"/>
<path d="M101.793 116.832H100.725V118.96C100.725 119.501 100.914 119.771 101.29 119.771C101.464 119.771 101.609 119.757 101.723 119.726L101.748 120.465C101.556 120.537 101.304 120.573 100.994 120.573C100.611 120.573 100.313 120.456 100.097 120.222C99.8801 119.988 99.7727 119.594 99.7727 119.041V116.832H99.1348V116.103H99.7727V115.3L100.724 115.012V116.102H101.792V116.832H101.793Z" fill="white"/>
<path d="M106.929 120.483H105.958V117.993C105.958 117.208 105.666 116.814 105.079 116.814C104.629 116.814 104.322 117.042 104.153 117.497C104.125 117.593 104.108 117.71 104.108 117.848V120.482H103.139V114.092H104.108V116.733H104.127C104.432 116.252 104.87 116.012 105.438 116.012C105.84 116.012 106.172 116.144 106.436 116.409C106.765 116.739 106.929 117.23 106.929 117.878V120.483Z" fill="white"/>
<path d="M112.23 118.086C112.23 118.26 112.217 118.407 112.194 118.527H109.284C109.297 118.96 109.436 119.29 109.705 119.519C109.951 119.723 110.269 119.825 110.658 119.825C111.089 119.825 111.481 119.757 111.835 119.618L111.987 120.295C111.573 120.475 111.086 120.565 110.522 120.565C109.846 120.565 109.313 120.365 108.928 119.966C108.541 119.566 108.35 119.03 108.35 118.357C108.35 117.696 108.528 117.146 108.888 116.708C109.264 116.239 109.773 116.005 110.414 116.005C111.042 116.005 111.519 116.239 111.841 116.708C112.101 117.079 112.23 117.539 112.23 118.086ZM111.304 117.834C111.312 117.545 111.248 117.296 111.116 117.086C110.948 116.815 110.691 116.68 110.344 116.68C110.027 116.68 109.769 116.812 109.572 117.076C109.411 117.287 109.315 117.539 109.284 117.834H111.304Z" fill="white"/>
</g>
<g clip-path="url(#clip2_265_2546)">
<path fill-rule="evenodd" clip-rule="evenodd" d="M120.369 186.024H4.63133C2.07881 186.024 0 183.947 0 181.418V153.778C0 151.24 2.07881 149.172 4.63133 149.172H120.369C122.919 149.172 125 151.24 125 153.778V181.418C125 183.947 122.919 186.024 120.369 186.024Z" fill="black"/>
<path fill-rule="evenodd" clip-rule="evenodd" d="M120.369 149.909C122.51 149.909 124.262 151.649 124.262 153.778V181.418C124.262 183.548 122.521 185.287 120.369 185.287H4.63133C2.49043 185.287 0.738162 183.548 0.738162 181.418V153.778C0.738162 151.649 2.47894 149.909 4.63133 149.909H120.369ZM120.369 149.172H4.63133C2.07881 149.172 0 151.249 0 153.778V181.418C0 183.957 2.07881 186.024 4.63133 186.024H120.369C122.919 186.024 125 183.957 125 181.418V153.778C125 151.249 122.919 149.172 120.369 149.172Z" fill="#A6A6A6"/>
<path d="M65.8497 161.363C65.015 161.363 64.3113 161.071 63.7548 160.496C63.2029 159.938 62.8948 159.168 62.9086 158.383C62.9086 157.544 63.1937 156.834 63.7548 156.271C64.309 155.697 65.0127 155.405 65.8474 155.405C66.673 155.405 67.3766 155.697 67.9423 156.271C68.5034 156.853 68.7886 157.563 68.7886 158.383C68.7794 159.224 68.4942 159.934 67.9423 160.494C67.3881 161.073 66.6845 161.363 65.8497 161.363ZM41.0121 161.363C40.1957 161.363 39.4874 161.075 38.908 160.508C38.3331 159.943 38.041 159.228 38.041 158.385C38.041 157.542 38.3331 156.827 38.908 156.262C39.4759 155.695 40.1842 155.407 41.0121 155.407C41.4168 155.407 41.81 155.488 42.1871 155.651C42.5574 155.809 42.8586 156.025 43.0817 156.29L43.1369 156.356L42.5137 156.967L42.4493 156.892C42.0975 156.473 41.626 156.269 41.0029 156.269C40.4464 156.269 39.9612 156.467 39.561 156.857C39.1586 157.25 38.9539 157.765 38.9539 158.387C38.9539 159.01 39.1586 159.525 39.561 159.917C39.9612 160.308 40.4464 160.506 41.0029 160.506C41.5961 160.506 42.0952 160.308 42.4838 159.917C42.7137 159.688 42.8563 159.366 42.9069 158.959H40.9086V158.1H43.7646L43.7761 158.178C43.7968 158.323 43.8175 158.472 43.8175 158.61C43.8175 159.403 43.5784 160.044 43.1047 160.517C42.5666 161.078 41.8629 161.363 41.0121 161.363ZM74.0362 161.241H73.1554L70.458 156.928L70.481 157.705V161.239H69.6003V155.529H70.6052L70.6328 155.573L73.1692 159.635L73.1462 158.861V155.529H74.0362V161.241ZM59.2316 161.241H58.3393V156.388H56.7917V155.529H60.7769V156.388H59.2292V161.241H59.2316ZM56.065 161.241H55.1751V155.529H56.065V161.241ZM51.0635 161.241H50.1735V156.388H48.6259V155.529H52.6111V156.388H51.0635V161.241ZM48.0625 161.232H44.65V155.529H48.0625V156.388H45.5422V157.955H47.8165V158.805H45.5422V160.372H48.0625V161.232ZM64.4079 159.906C64.8057 160.303 65.2886 160.503 65.8497 160.503C66.4269 160.503 66.8983 160.308 67.2915 159.906C67.6825 159.515 67.8802 159.003 67.8802 158.385C67.8802 157.767 67.6825 157.252 67.2938 156.864C66.896 156.467 66.4108 156.267 65.852 156.267C65.2748 156.267 64.8034 156.462 64.4125 156.864C64.0216 157.255 63.8238 157.767 63.8238 158.385C63.8238 159.003 64.0193 159.518 64.4079 159.906Z" fill="white"/>
<path fill-rule="evenodd" clip-rule="evenodd" d="M62.8267 169.216C60.6536 169.216 58.8922 170.863 58.8922 173.135C58.8922 175.387 60.6651 177.055 62.8267 177.055C64.9998 177.055 66.7613 175.396 66.7613 173.135C66.7613 170.863 64.9998 169.216 62.8267 169.216ZM62.8267 175.502C61.6378 175.502 60.6145 174.518 60.6145 173.126C60.6145 171.713 61.6401 170.75 62.8267 170.75C64.0156 170.75 65.0389 171.713 65.0389 173.126C65.0412 174.528 64.0156 175.502 62.8267 175.502ZM54.2424 169.216C52.0693 169.216 50.3079 170.863 50.3079 173.135C50.3079 175.387 52.0808 177.055 54.2424 177.055C56.4155 177.055 58.177 175.396 58.177 173.135C58.177 170.863 56.4132 169.216 54.2424 169.216ZM54.2424 175.502C53.0535 175.502 52.0302 174.518 52.0302 173.126C52.0302 171.713 53.0558 170.75 54.2424 170.75C55.4313 170.75 56.4546 171.713 56.4546 173.126C56.4546 174.528 55.4313 175.502 54.2424 175.502ZM44.0277 170.413V172.071H48.0129C47.891 173.002 47.5829 173.689 47.1115 174.16C46.5274 174.744 45.6259 175.378 44.0369 175.378C41.5879 175.378 39.6723 173.402 39.6723 170.955C39.6723 168.508 41.5879 166.532 44.0369 166.532C45.3592 166.532 46.3227 167.054 47.0379 167.72L48.2153 166.544C47.2218 165.592 45.8996 164.864 44.0461 164.864C40.6865 164.864 37.8672 167.598 37.8672 170.946C37.8672 174.302 40.6842 177.027 44.0461 177.027C45.8605 177.027 47.2218 176.435 48.298 175.318C49.3949 174.222 49.7422 172.676 49.7422 171.428C49.7422 171.04 49.7123 170.691 49.6502 170.394H44.0254C44.0277 170.392 44.0277 170.413 44.0277 170.413ZM85.8086 171.704C85.4798 170.824 84.4864 169.206 82.4489 169.206C80.4299 169.206 78.7512 170.794 78.7512 173.126C78.7512 175.327 80.4115 177.046 82.6444 177.046C84.4381 177.046 85.4821 175.95 85.9121 175.306L84.5806 174.415C84.1391 175.07 83.5251 175.499 82.6536 175.499C81.7729 175.499 81.1566 175.1 80.7473 174.312L85.9926 172.14C85.9926 172.143 85.8086 171.704 85.8086 171.704ZM80.4598 173.013C80.4184 171.499 81.6372 170.73 82.5087 170.73C83.1963 170.73 83.7689 171.067 83.9644 171.559L80.4598 173.013ZM76.1987 176.811H77.9211V165.296H76.1987V176.811ZM73.3702 170.086H73.3082C72.9195 169.625 72.1814 169.206 71.2385 169.206C69.2816 169.206 67.4787 170.927 67.4787 173.138C67.4787 175.339 69.2724 177.039 71.2385 177.039C72.1699 177.039 72.9195 176.618 73.3082 176.147H73.3702V176.71C73.3702 178.206 72.57 179.012 71.2799 179.012C70.2244 179.012 69.5691 178.254 69.3023 177.62L67.8053 178.245C68.2353 179.279 69.3828 180.559 71.2776 180.559C73.2967 180.559 75.0075 179.371 75.0075 176.474V169.441H73.3794V170.086C73.3817 170.086 73.3702 170.086 73.3702 170.086ZM71.3926 175.502C70.2037 175.502 69.2103 174.509 69.2103 173.138C69.2103 171.754 70.2037 170.753 71.3926 170.753C72.57 170.753 73.4829 171.766 73.4829 173.138C73.4944 174.509 72.5723 175.502 71.3926 175.502ZM93.8732 165.296H89.7547V176.811H91.4771V172.451H93.8755C95.7818 172.451 97.656 171.07 97.656 168.878C97.656 166.686 95.7887 165.296 93.8732 165.296ZM93.9238 170.842H91.4748V166.891H93.9238C95.2139 166.891 95.9428 167.954 95.9428 168.866C95.9428 169.769 95.2047 170.842 93.9238 170.842ZM104.559 169.195C103.308 169.195 102.018 169.749 101.485 170.955L103.012 171.589C103.341 170.955 103.943 170.739 104.58 170.739C105.472 170.739 106.374 171.272 106.394 172.223V172.345C106.086 172.17 105.41 171.904 104.601 171.904C102.952 171.904 101.28 172.804 101.28 174.493C101.28 176.039 102.632 177.032 104.138 177.032C105.295 177.032 105.932 176.51 106.33 175.906H106.392V176.798H108.052V172.386C108.052 170.332 106.525 169.195 104.559 169.195ZM104.343 175.502C103.78 175.502 102.991 175.226 102.991 174.518C102.991 173.627 103.975 173.289 104.815 173.289C105.573 173.289 105.932 173.452 106.383 173.677C106.259 174.711 105.385 175.493 104.343 175.502ZM114.109 169.441L112.132 174.436H112.07L110.021 169.441H108.167L111.242 176.423L109.49 180.304H111.283L116.013 169.441H114.109ZM98.6057 176.811H100.328V165.296H98.6057V176.811Z" fill="white"/>
<path fill-rule="evenodd" clip-rule="evenodd" d="M9.62199 156.113C9.35524 156.4 9.20117 156.839 9.20117 157.413V177.785C9.20117 178.36 9.35524 178.799 9.63119 179.074L9.70248 179.136L21.1267 167.722V167.467L9.69328 156.051L9.62199 156.113Z" fill="url(#paint1_linear_265_2546)"/>
<path fill-rule="evenodd" clip-rule="evenodd" d="M24.9276 171.538L21.1172 167.731V167.465L24.9276 163.658L25.0104 163.708L29.5175 166.268C30.8076 166.994 30.8076 168.193 29.5175 168.928L25.0104 171.488L24.9276 171.538Z" fill="url(#paint2_linear_265_2546)"/>
<path fill-rule="evenodd" clip-rule="evenodd" d="M25.0098 171.488L21.1166 167.598L9.62109 179.084C10.0419 179.534 10.7479 179.584 11.5366 179.146L25.0098 171.488Z" fill="url(#paint3_linear_265_2546)"/>
<path fill-rule="evenodd" clip-rule="evenodd" d="M25.0098 163.708L11.5366 156.062C10.7479 155.612 10.0396 155.674 9.62109 156.124L21.1166 167.598L25.0098 163.708Z" fill="url(#paint4_linear_265_2546)"/>
<path opacity="0.2" fill-rule="evenodd" clip-rule="evenodd" d="M24.9276 171.405L11.5464 179.001C10.799 179.431 10.1322 179.401 9.70215 179.01L9.63086 179.081L9.70215 179.143C10.1322 179.532 10.799 179.564 11.5464 179.134L25.0196 171.488L24.9276 171.405Z" fill="black"/>
<path opacity="0.12" fill-rule="evenodd" clip-rule="evenodd" d="M29.5175 168.795L24.916 171.405L24.9988 171.488L29.506 168.928C30.1521 168.561 30.4695 168.078 30.4695 167.598C30.4304 168.039 30.1015 168.457 29.5175 168.795Z" fill="black"/>
<path opacity="0.25" fill-rule="evenodd" clip-rule="evenodd" d="M11.5375 156.195L29.5179 166.401C30.102 166.73 30.4308 167.159 30.4814 167.598C30.4814 167.118 30.164 166.636 29.5179 166.268L11.5375 156.062C10.2475 155.325 9.20117 155.94 9.20117 157.413V157.546C9.20117 156.071 10.2475 155.467 11.5375 156.195Z" fill="white"/>
</g>
<defs>
<linearGradient id="paint0_linear_265_2546" x1="4.39339" y1="58.6066" x2="25.6066" y2="37.3934" gradientUnits="userSpaceOnUse">
<stop stop-color="#FFD521"/>
<stop offset="0.0551048" stop-color="#FFD020"/>
<stop offset="0.1241" stop-color="#FEC01E"/>
<stop offset="0.2004" stop-color="#FCA71B"/>
<stop offset="0.2821" stop-color="#FA8316"/>
<stop offset="0.3681" stop-color="#F85510"/>
<stop offset="0.4563" stop-color="#F51E09"/>
<stop offset="0.5" stop-color="#F30005"/>
<stop offset="0.5035" stop-color="#F20007"/>
<stop offset="0.5966" stop-color="#E1003B"/>
<stop offset="0.6879" stop-color="#D30067"/>
<stop offset="0.7757" stop-color="#C70088"/>
<stop offset="0.8589" stop-color="#BF00A0"/>
<stop offset="0.9357" stop-color="#BB00AF"/>
<stop offset="1" stop-color="#B900B4"/>
</linearGradient>
<linearGradient id="paint1_linear_265_2546" x1="20.102" y1="157.193" x2="1.80445" y2="162.073" gradientUnits="userSpaceOnUse">
<stop stop-color="#00A0FF"/>
<stop offset="0.00657" stop-color="#00A1FF"/>
<stop offset="0.2601" stop-color="#00BEFF"/>
<stop offset="0.5122" stop-color="#00D2FF"/>
<stop offset="0.7604" stop-color="#00DFFF"/>
<stop offset="1" stop-color="#00E3FF"/>
</linearGradient>
<linearGradient id="paint2_linear_265_2546" x1="31.1999" y1="167.598" x2="8.88727" y2="167.598" gradientUnits="userSpaceOnUse">
<stop stop-color="#FFE000"/>
<stop offset="0.4087" stop-color="#FFBD00"/>
<stop offset="0.7754" stop-color="#FFA500"/>
<stop offset="1" stop-color="#FF9C00"/>
</linearGradient>
<linearGradient id="paint3_linear_265_2546" x1="22.8929" y1="169.715" x2="8.2211" y2="194.43" gradientUnits="userSpaceOnUse">
<stop stop-color="#FF3A44"/>
<stop offset="1" stop-color="#C31162"/>
</linearGradient>
<linearGradient id="paint4_linear_265_2546" x1="6.72639" y1="149.337" x2="13.272" y2="160.375" gradientUnits="userSpaceOnUse">
<stop stop-color="#32A071"/>
<stop offset="0.0685" stop-color="#2DA771"/>
<stop offset="0.4762" stop-color="#15CF74"/>
<stop offset="0.8009" stop-color="#06E775"/>
<stop offset="1" stop-color="#00F076"/>
</linearGradient>
<clipPath id="clip0_265_2546">
<rect x="42" y="33" width="30" height="30" rx="15" fill="white"/>
</clipPath>
<clipPath id="clip1_265_2546">
<rect width="125" height="37.172" fill="white" transform="translate(0 108)"/>
</clipPath>
<clipPath id="clip2_265_2546">
<rect width="125" height="36.8526" fill="white" transform="translate(0 149.172)"/>
</clipPath>
</defs>
</svg>
