<svg width="47" height="49" viewBox="0 0 47 49" fill="none" xmlns="http://www.w3.org/2000/svg">
<path fill-rule="evenodd" clip-rule="evenodd" d="M30.3542 28.5833H28.8071L28.2588 28.0321C30.1779 25.7046 31.3333 22.6829 31.3333 19.3958C31.3333 12.0662 25.6346 6.125 18.6042 6.125C11.5738 6.125 5.875 12.0662 5.875 19.3958C5.875 26.7254 11.5738 32.6667 18.6042 32.6667C21.7571 32.6667 24.6554 31.4621 26.8879 29.4612L27.4167 30.0329V31.6458L37.2083 41.8337L40.1263 38.7917L30.3542 28.5833ZM18.6042 28.5833C13.7279 28.5833 9.79167 24.4796 9.79167 19.3958C9.79167 14.3121 13.7279 10.2083 18.6042 10.2083C23.4804 10.2083 27.4167 14.3121 27.4167 19.3958C27.4167 24.4796 23.4804 28.5833 18.6042 28.5833Z" fill="#2164F3"/>
</svg>
