<svg width="100" height="100" viewBox="0 0 100 100" fill="none" xmlns="http://www.w3.org/2000/svg">
<path d="M51.6244 45.4167C42.166 42.9583 39.1243 40.4167 39.1243 36.4583C39.1243 31.9167 43.3327 28.75 50.3743 28.75C57.791 28.75 60.541 32.2917 60.791 37.5H69.9993C69.7077 30.3333 65.3327 23.75 56.6243 21.625V12.5H44.1243V21.5C36.041 23.25 29.541 28.5 29.541 36.5417C29.541 46.1667 37.4993 50.9583 49.1243 53.75C59.541 56.25 61.6244 59.9167 61.6244 63.7917C61.6244 66.6667 59.5827 71.25 50.3743 71.25C41.791 71.25 38.416 67.4167 37.9577 62.5H28.791C29.291 71.625 36.1243 76.75 44.1243 78.4583V87.5H56.6243V78.5417C64.7494 77 71.2077 72.2917 71.2077 63.75C71.2077 51.9167 61.0827 47.875 51.6244 45.4167Z" fill="#20B907"/>
</svg>
