<svg width="100" height="100" viewBox="0 0 100 100" fill="none" xmlns="http://www.w3.org/2000/svg">
<path d="M29.1667 45.8335H37.5V54.1668H29.1667V45.8335ZM87.5 25.0002V83.3335C87.5 87.9168 83.75 91.6668 79.1667 91.6668H20.8333C16.2083 91.6668 12.5 87.9168 12.5 83.3335L12.5417 25.0002C12.5417 20.4168 16.2083 16.6668 20.8333 16.6668H25V8.3335H33.3333V16.6668H66.6667V8.3335H75V16.6668H79.1667C83.75 16.6668 87.5 20.4168 87.5 25.0002ZM20.8333 33.3335H79.1667V25.0002H20.8333V33.3335ZM79.1667 83.3335V41.6668H20.8333V83.3335H79.1667ZM62.5 54.1668H70.8333V45.8335H62.5V54.1668ZM45.8333 54.1668H54.1667V45.8335H45.8333V54.1668Z" fill="#EA5353"/>
</svg>
