<svg width="66" height="28" viewBox="0 0 66 28" fill="none" xmlns="http://www.w3.org/2000/svg">
<path d="M60.6157 10.4382L51.9172 19.1366L43.2188 10.4382" stroke="#2164F3" stroke-width="2" stroke-linecap="round" stroke-linejoin="round"/>
<g clip-path="url(#clip0_298_3966)">
<path fill-rule="evenodd" clip-rule="evenodd" d="M0 0H44.2241V1.79418H0V0ZM0 3.58351H44.2241V5.37769H0V3.58351ZM0 7.16218H44.2241V8.95636H0V7.16218ZM0 10.7408H44.2241V12.535H0V10.7408ZM0 14.3292H44.2241V16.1137H0V14.3292ZM0 17.903H44.2241V19.6972H0V17.903ZM0 21.4817H44.2241V23.2759H0V21.4817Z" fill="#BD3D44"/>
<path fill-rule="evenodd" clip-rule="evenodd" d="M0 1.79419H44.2241V3.58352H0V1.79419ZM0 5.37285H44.2241V7.16219H0V5.37285ZM0 8.95152H44.2241V10.7457H0V8.95152ZM0 12.535H44.2241V14.3292H0V12.535ZM0 16.1137H44.2241V17.9079H0V16.1137ZM0 19.6924H44.2241V21.4865H0V19.6924Z" fill="white"/>
<path fill-rule="evenodd" clip-rule="evenodd" d="M0 0H17.6897V12.535H0V0Z" fill="#192F5D"/>
<path fill-rule="evenodd" clip-rule="evenodd" d="M1.47474 0.533386L1.63961 1.03285H2.15362L1.7366 1.33834L1.89662 1.8378L1.47474 1.52746L1.05772 1.83296L1.21289 1.33834L0.791016 1.03285H1.31957L1.47474 0.533386ZM4.42302 0.533386L4.58304 1.03285H5.10675L4.68487 1.33834L4.84005 1.8378L4.42302 1.52746L4.00114 1.83296L4.16117 1.33834L3.74414 1.03285H4.25815L4.42302 0.533386ZM7.3713 0.533386L7.53132 1.03285H8.05018L7.63315 1.33834L7.79317 1.8378L7.3713 1.52746L6.94942 1.83296L7.10944 1.33834L6.68757 1.03285H7.21127L7.3713 0.533386ZM10.3196 0.533386L10.4796 1.03285H11.0033L10.5814 1.33834L10.7414 1.8378L10.3196 1.52746L9.8977 1.83296L10.0626 1.33834L9.63584 1.03285H10.1547L10.3196 0.533386ZM13.2678 0.533386L13.4279 1.03285H13.9467L13.5297 1.33834L13.6897 1.8378L13.2678 1.52746L12.846 1.83296L13.006 1.33834L12.589 1.03285H13.1078L13.2678 0.533386ZM16.2161 0.533386L16.3761 1.03285H16.8999L16.4731 1.33834L16.638 1.8378L16.2161 1.52746L15.7943 1.83296L15.9591 1.33834L15.5324 1.03285H16.0561L16.2161 0.533386ZM2.94888 1.79416L3.1089 2.28877H3.63746L3.21558 2.58942L3.37076 3.08888L2.95858 2.78339L2.53671 3.08888L2.68703 2.58942L2.2797 2.28877H2.79856L2.94888 1.79416ZM5.89716 1.79416L6.06203 2.28877H6.58089L6.15416 2.58942L6.31903 3.08888L5.89716 2.78339L5.47528 3.08888L5.6353 2.58942L5.21343 2.28877H5.73714L5.89716 1.79416ZM8.84543 1.79416L9.00546 2.28877H9.52916L9.10729 2.58942L9.26731 3.08888L8.84543 2.78339L8.42356 3.08888L8.58358 2.58942L8.16655 2.28877H8.68056L8.84543 1.79416ZM11.7937 1.79416L11.9586 2.28877H12.4774L12.0507 2.58942L12.2156 3.08888L11.7937 2.78339L11.3767 3.08888L11.5319 2.58942L11.11 2.28877H11.6385L11.7937 1.79416ZM14.742 1.79416L14.902 2.28877H15.4257L15.0038 2.58942L15.1639 3.08888L14.742 2.78339L14.3201 3.08888L14.4801 2.58942L14.0631 2.28877H14.582L14.742 1.79416ZM1.47474 3.03554L1.63961 3.53985H2.15362L1.7366 3.84535L1.89662 4.33996L1.47474 4.03446L1.05772 4.33996L1.21289 3.84535L0.791016 3.53985H1.31957L1.47474 3.03554ZM4.42302 3.03554L4.58304 3.53985H5.10675L4.68487 3.84535L4.84005 4.33996L4.42302 4.03446L4.00114 4.33996L4.16117 3.8405L3.74414 3.535H4.25815L4.42302 3.03554ZM7.3713 3.03554L7.53132 3.535H8.05018L7.63315 3.8405L7.79317 4.33511L7.3713 4.02962L6.94942 4.33511L7.10944 3.83565L6.68757 3.53015H7.21127L7.3713 3.03554ZM10.3196 3.03554L10.4796 3.535H11.0033L10.5814 3.8405L10.7414 4.33511L10.3196 4.02962L9.8977 4.33511L10.0626 3.83565L9.63584 3.53015H10.1547L10.3196 3.03554ZM13.2678 3.03554L13.4279 3.535H13.9467L13.5297 3.8405L13.6897 4.33511L13.2678 4.02962L12.846 4.33511L13.006 3.83565L12.589 3.53015H13.1078L13.2678 3.03554ZM16.2161 3.03554L16.3761 3.535H16.8999L16.4731 3.8405L16.638 4.33511L16.2161 4.02962L15.7943 4.33511L15.9591 3.83565L15.5324 3.53015H16.0561L16.2161 3.03554ZM2.94888 4.29632L3.1089 4.79093H3.63746L3.21558 5.09643L3.37561 5.59589L2.95373 5.28554L2.53186 5.59104L2.69188 5.09643L2.27485 4.79093H2.79371L2.94888 4.29632ZM5.89716 4.29632L6.06203 4.79093H6.58089L6.15416 5.09643L6.31903 5.59589L5.89716 5.28554L5.47528 5.59104L5.6353 5.09643L5.21343 4.79093H5.73714L5.89716 4.29632ZM8.84543 4.29632L9.00546 4.79093H9.52916L9.10729 5.09643L9.26731 5.59589L8.84543 5.28554L8.42356 5.59104L8.58358 5.09643L8.16655 4.79093H8.68056L8.84543 4.29632ZM11.7937 4.29632L11.9586 4.79093H12.4774L12.0556 5.09643L12.2156 5.59589L11.7937 5.28554L11.3767 5.59104L11.5319 5.09643L11.11 4.79093H11.6385L11.7937 4.29632ZM14.742 4.29632L14.902 4.79093H15.4257L15.0038 5.09643L15.1639 5.59589L14.742 5.28554L14.3201 5.59104L14.4801 5.09643L14.0631 4.79093H14.582L14.742 4.29632ZM1.47474 5.55224L1.63961 6.04686H2.15362L1.7366 6.35235L1.89662 6.85181L1.47474 6.54147L1.05772 6.84696L1.21289 6.35235L0.791016 6.04686H1.31957L1.47474 5.55224ZM4.42302 5.55224L4.58304 6.04686H5.10675L4.68487 6.35235L4.84005 6.84696L4.42302 6.54147L4.00114 6.84696L4.16117 6.35235L3.74414 6.04686H4.25815L4.42302 5.55224ZM7.3713 5.55224L7.53132 6.04686H8.05018L7.63315 6.35235L7.79317 6.85181L7.3713 6.54147L6.94942 6.84696L7.10944 6.35235L6.68757 6.04686H7.21127L7.3713 5.55224ZM10.3196 5.55224L10.4796 6.04686H11.0033L10.5814 6.35235L10.7414 6.85181L10.3196 6.54147L9.8977 6.84696L10.0626 6.35235L9.63584 6.04686H10.1547L10.3196 5.55224ZM13.2678 5.55224L13.4279 6.04686H13.9467L13.5297 6.35235L13.6897 6.85181L13.2678 6.54147L12.846 6.84696L13.006 6.35235L12.589 6.04686H13.1078L13.2678 5.55224ZM16.2161 5.55224L16.3761 6.04686H16.8999L16.4731 6.35235L16.638 6.85181L16.2161 6.54147L15.7943 6.84696L15.9543 6.35235L15.5275 6.04686H16.0513L16.2161 5.55224ZM2.94888 6.80332L3.1089 7.30278H3.63746L3.21558 7.60343L3.37561 8.10289L2.95373 7.79255L2.53186 8.10289L2.69188 7.60343L2.27485 7.29793H2.79371L2.94888 6.80332ZM5.89716 6.80332L6.06203 7.30278H6.58089L6.15416 7.60343L6.31903 8.10289L5.89716 7.79255L5.47528 8.10289L5.6353 7.60343L5.21343 7.29793H5.73714L5.89716 6.80332ZM8.84543 6.80332L9.00546 7.30278H9.52916L9.10729 7.60343L9.26731 8.10289L8.84543 7.79255L8.42356 8.10289L8.58358 7.60343L8.16655 7.29793H8.68056L8.84543 6.80332ZM11.7937 6.80332L11.9586 7.30278H12.4774L12.0556 7.60343L12.2156 8.10289L11.7937 7.79255L11.3767 8.10289L11.5319 7.60343L11.11 7.29793H11.6385L11.7937 6.80332ZM14.742 6.80332L14.902 7.30278H15.4257L15.0038 7.60343L15.1639 8.10289L14.742 7.79255L14.3201 8.10289L14.4801 7.60343L14.0631 7.29793H14.582L14.742 6.80332ZM1.47474 8.0544L1.63961 8.55386H2.15362L1.7366 8.85936L1.89662 9.34912L1.47474 9.04847L1.05772 9.34912L1.21289 8.85451L0.791016 8.54901H1.31957L1.47474 8.0544ZM4.42302 8.0544L4.58304 8.55386H5.10675L4.68487 8.85936L4.8449 9.34912L4.42302 9.04847L4.00114 9.34912L4.16602 8.85451L3.74414 8.54901H4.25815L4.42302 8.0544ZM7.3713 8.0544L7.53132 8.55386H8.05018L7.63315 8.85936L7.79317 9.34912L7.3713 9.04847L6.94942 9.34912L7.10944 8.85451L6.68757 8.54901H7.21127L7.3713 8.0544ZM10.3196 8.0544L10.4796 8.55386H11.0033L10.5814 8.85936L10.7414 9.34912L10.3196 9.04847L9.8977 9.34912L10.0626 8.85451L9.63584 8.54901H10.1547L10.3196 8.0544ZM13.2678 8.0544L13.4279 8.55386H13.9467L13.5297 8.85936L13.6897 9.34912L13.2678 9.04847L12.846 9.34912L13.006 8.85451L12.589 8.54901H13.1078L13.2678 8.0544ZM16.2161 8.0544L16.3761 8.55386H16.8999L16.4731 8.85936L16.638 9.34912L16.2161 9.04847L15.7943 9.34912L15.9591 8.85451L15.5324 8.54901H16.0561L16.2161 8.0544ZM2.94888 9.31033L3.1089 9.80494H3.63746L3.21558 10.1104L3.37561 10.6099L2.95373 10.2996L2.53186 10.605L2.69188 10.1104L2.27485 9.80494H2.79371L2.94888 9.31033ZM5.89716 9.31033L6.06203 9.80494H6.58089L6.15416 10.1104L6.31903 10.6099L5.89716 10.2996L5.47528 10.605L5.6353 10.1104L5.21343 9.80494H5.73714L5.89716 9.31033ZM8.84543 9.31033L9.00546 9.80494H9.52916L9.10729 10.1104L9.26731 10.6099L8.84543 10.2996L8.42356 10.605L8.58358 10.1104L8.16655 9.80494H8.68056L8.84543 9.31033ZM11.7937 9.31033L11.9586 9.80494H12.4774L12.0556 10.1104L12.2156 10.6099L11.7937 10.2996L11.3767 10.605L11.5319 10.1104L11.11 9.80494H11.6385L11.7937 9.31033ZM14.742 9.31033L14.902 9.80494H15.4257L15.0038 10.1104L15.1639 10.6099L14.742 10.2996L14.3201 10.605L14.4801 10.1104L14.0631 9.80494H14.582L14.742 9.31033ZM1.47474 10.5663L1.63961 11.0609H2.15362L1.7366 11.3664L1.89662 11.861L1.47474 11.5555L1.05772 11.861L1.21289 11.3615L0.791016 11.056H1.31957L1.47474 10.5663ZM4.42302 10.5663L4.58304 11.0609H5.10675L4.68487 11.3664L4.8449 11.861L4.42302 11.5555L4.00114 11.861L4.16602 11.3615L3.74414 11.056H4.25815L4.42302 10.5663ZM7.3713 10.5663L7.53132 11.0609H8.05018L7.64285 11.3664L7.80287 11.861L7.38099 11.5555L6.95912 11.861L7.11914 11.3615L6.69727 11.056H7.22097L7.3713 10.5663ZM10.3196 10.5663L10.4796 11.0609H11.0033L10.5814 11.3664L10.7414 11.861L10.3196 11.5555L9.8977 11.861L10.0626 11.3615L9.63584 11.056H10.1547L10.3196 10.5663ZM13.2678 10.5663L13.4279 11.0609H13.9467L13.5297 11.3664L13.6897 11.861L13.2678 11.5555L12.846 11.861L13.006 11.3615L12.589 11.056H13.1078L13.2678 10.5663ZM16.2161 10.5663L16.3761 11.0609H16.8999L16.4731 11.3664L16.638 11.861L16.2161 11.5555L15.7943 11.861L15.9591 11.3615L15.5324 11.056H16.0561L16.2161 10.5663Z" fill="white"/>
</g>
<defs>
<clipPath id="clip0_298_3966">
<rect width="31.0345" height="23.2759" fill="white"/>
</clipPath>
</defs>
</svg>
