<svg width="156" height="30" viewBox="0 0 156 30" fill="none" xmlns="http://www.w3.org/2000/svg">
<rect width="30" height="30" rx="15" fill="url(#paint0_linear_265_2549)"/>
<path d="M14.9998 6.60614C17.7328 6.60614 18.0568 6.61514 19.1368 6.66614C20.1358 6.71114 20.6788 6.87914 21.0388 7.02014C21.5158 7.20614 21.8578 7.42814 22.2148 7.78514C22.5718 8.14214 22.7938 8.48414 22.9798 8.96114C23.1208 9.32114 23.2858 9.86414 23.3338 10.8631C23.3818 11.9431 23.3938 12.2671 23.3938 15.0001C23.3938 17.7331 23.3848 18.0571 23.3338 19.1371C23.2888 20.1361 23.1208 20.6791 22.9798 21.0391C22.7938 21.5161 22.5718 21.8581 22.2148 22.2151C21.8578 22.5721 21.5158 22.7941 21.0388 22.9801C20.6788 23.1211 20.1358 23.2861 19.1368 23.3341C18.0568 23.3821 17.7328 23.3941 14.9998 23.3941C12.2668 23.3941 11.9428 23.3851 10.8628 23.3341C9.86381 23.2891 9.32081 23.1211 8.96081 22.9801C8.48381 22.7941 8.14181 22.5721 7.78481 22.2151C7.42781 21.8581 7.20581 21.5161 7.01981 21.0391C6.87881 20.6791 6.71381 20.1361 6.66581 19.1371C6.61781 18.0571 6.60581 17.7331 6.60581 15.0001C6.60581 12.2671 6.61481 11.9431 6.66581 10.8631C6.71081 9.86414 6.87881 9.32114 7.01981 8.96114C7.20581 8.48414 7.42781 8.14214 7.78481 7.78514C8.14181 7.42814 8.48381 7.20614 8.96081 7.02014C9.32081 6.87914 9.86381 6.71414 10.8628 6.66614C11.9428 6.61514 12.2668 6.60614 14.9998 6.60614ZM14.9998 4.76114C12.2188 4.76114 11.8708 4.77314 10.7788 4.82414C9.68981 4.87514 8.94581 5.04614 8.29181 5.30114C7.61981 5.55914 7.04681 5.91014 6.47981 6.48014C5.90981 7.05014 5.56181 7.62014 5.29781 8.29514C5.04581 8.94614 4.87181 9.69014 4.82081 10.7821C4.76981 11.8741 4.75781 12.2221 4.75781 15.0031C4.75781 17.7841 4.76981 18.1321 4.82081 19.2241C4.87181 20.3131 5.04281 21.0571 5.29781 21.7111C5.55881 22.3801 5.90981 22.9531 6.47981 23.5201C7.04981 24.0901 7.61981 24.4381 8.29481 24.7021C8.94581 24.9541 9.68981 25.1281 10.7818 25.1791C11.8738 25.2301 12.2218 25.2421 15.0028 25.2421C17.7838 25.2421 18.1318 25.2301 19.2238 25.1791C20.3128 25.1281 21.0568 24.9571 21.7108 24.7021C22.3798 24.4411 22.9528 24.0901 23.5198 23.5201C24.0898 22.9501 24.4378 22.3801 24.7018 21.7051C24.9538 21.0541 25.1278 20.3101 25.1788 19.2181C25.2298 18.1261 25.2418 17.7781 25.2418 14.9971C25.2418 12.2161 25.2298 11.8681 25.1788 10.7761C25.1278 9.68714 24.9568 8.94314 24.7018 8.28914C24.4408 7.62014 24.0898 7.04714 23.5198 6.48014C22.9498 5.91014 22.3798 5.56214 21.7048 5.29814C21.0538 5.04614 20.3098 4.87214 19.2178 4.82114C18.1288 4.77314 17.7808 4.76114 14.9998 4.76114Z" fill="white"/>
<path d="M14.9992 9.74115C12.0952 9.74115 9.74023 12.0961 9.74023 15.0001C9.74023 17.9041 12.0952 20.2591 14.9992 20.2591C17.9032 20.2591 20.2582 17.9041 20.2582 15.0001C20.2582 12.0961 17.9032 9.74115 14.9992 9.74115ZM14.9992 18.4141C13.1152 18.4141 11.5852 16.8871 11.5852 15.0001C11.5852 13.1131 13.1152 11.5861 14.9992 11.5861C16.8832 11.5861 18.4132 13.1131 18.4132 15.0001C18.4132 16.8871 16.8832 18.4141 14.9992 18.4141Z" fill="white"/>
<path d="M20.4663 10.764C21.1456 10.764 21.6963 10.2134 21.6963 9.53405C21.6963 8.85474 21.1456 8.30405 20.4663 8.30405C19.787 8.30405 19.2363 8.85474 19.2363 9.53405C19.2363 10.2134 19.787 10.764 20.4663 10.764Z" fill="white"/>
<g clip-path="url(#clip0_265_2549)">
<rect x="42" width="30" height="30" rx="15" fill="#1877F2"/>
<path d="M62.8389 19.3361L63.5039 15.0002H59.3438V12.1865C59.3438 11.0002 59.925 9.8439 61.7883 9.8439H63.6797V6.1525C63.6797 6.1525 61.9632 5.85953 60.322 5.85953C56.8957 5.85953 54.6563 7.93609 54.6563 11.6955V15.0002H50.8477V19.3361H54.6563V29.8179C55.42 29.9378 56.2025 30.0002 57 30.0002C57.7975 30.0002 58.58 29.9378 59.3438 29.8179V19.3361H62.8389Z" fill="white"/>
</g>
<rect x="84" width="30" height="30" rx="15" fill="#FF0000"/>
<path d="M108.545 10.1731C108.317 9.3091 107.642 8.6311 106.784 8.4001C105.23 7.9801 99.0021 7.9801 99.0021 7.9801C99.0021 7.9801 92.7711 7.9801 91.2201 8.4001C90.3621 8.6311 89.6871 9.3091 89.4591 10.1731C89.0391 11.7361 89.0391 15.0001 89.0391 15.0001C89.0391 15.0001 89.0391 18.2641 89.4561 19.8271C89.6841 20.6911 90.3591 21.3691 91.2171 21.6001C92.7711 22.0201 98.9991 22.0201 98.9991 22.0201C98.9991 22.0201 105.23 22.0201 106.781 21.6001C107.639 21.3691 108.314 20.6911 108.542 19.8271C108.959 18.2641 108.959 15.0001 108.959 15.0001C108.959 15.0001 108.959 11.7361 108.545 10.1731ZM96.9621 17.9611V12.0391L102.167 15.0001L96.9621 17.9611Z" fill="white"/>
<rect x="126" width="30" height="30" rx="15" fill="#24ACFF"/>
<path d="M137.52 22.6199C144.594 22.6199 148.467 16.7579 148.467 11.6729C148.467 11.5079 148.467 11.3399 148.455 11.1749C149.208 10.6289 149.859 9.95687 150.375 9.18287C149.673 9.49487 148.929 9.69887 148.167 9.78887C148.971 9.30887 149.571 8.55287 149.859 7.66187C149.103 8.10887 148.278 8.42687 147.417 8.59487C145.959 7.04687 143.523 6.97187 141.975 8.42687C140.976 9.36587 140.553 10.7669 140.862 12.1019C137.769 11.9459 134.886 10.4849 132.933 8.08187C131.913 9.83987 132.432 12.0869 134.124 13.2179C133.512 13.1999 132.912 13.0349 132.378 12.7379C132.378 12.7529 132.378 12.7709 132.378 12.7859C132.378 14.6159 133.668 16.1939 135.465 16.5569C134.898 16.7099 134.304 16.7339 133.728 16.6229C134.232 18.1889 135.675 19.2629 137.322 19.2959C135.96 20.3669 134.277 20.9489 132.546 20.9459C132.24 20.9459 131.934 20.9279 131.631 20.8889C133.383 22.0199 135.432 22.6199 137.52 22.6169" fill="white"/>
<defs>
<linearGradient id="paint0_linear_265_2549" x1="4.39339" y1="25.6066" x2="25.6066" y2="4.39339" gradientUnits="userSpaceOnUse">
<stop stop-color="#FFD521"/>
<stop offset="0.0551048" stop-color="#FFD020"/>
<stop offset="0.1241" stop-color="#FEC01E"/>
<stop offset="0.2004" stop-color="#FCA71B"/>
<stop offset="0.2821" stop-color="#FA8316"/>
<stop offset="0.3681" stop-color="#F85510"/>
<stop offset="0.4563" stop-color="#F51E09"/>
<stop offset="0.5" stop-color="#F30005"/>
<stop offset="0.5035" stop-color="#F20007"/>
<stop offset="0.5966" stop-color="#E1003B"/>
<stop offset="0.6879" stop-color="#D30067"/>
<stop offset="0.7757" stop-color="#C70088"/>
<stop offset="0.8589" stop-color="#BF00A0"/>
<stop offset="0.9357" stop-color="#BB00AF"/>
<stop offset="1" stop-color="#B900B4"/>
</linearGradient>
<clipPath id="clip0_265_2549">
<rect x="42" width="30" height="30" rx="15" fill="white"/>
</clipPath>
</defs>
</svg>
