<svg width="697" height="222" viewBox="0 0 697 222" fill="none" xmlns="http://www.w3.org/2000/svg">
<path fill-rule="evenodd" clip-rule="evenodd" d="M606.69 155.841C604.453 160.635 601.482 164.192 597.85 166.503C594.127 168.819 590.074 169.969 585.611 169.969H585.539C581.07 169.969 577.017 168.733 573.294 166.337C569.578 163.863 566.607 160.219 564.455 155.425C562.31 150.547 561.233 144.679 561.233 137.735C561.233 131.205 562.223 125.423 564.29 120.544C566.277 115.587 569.163 111.779 572.806 109.139C576.522 106.405 580.661 105.171 585.367 105.171H585.611C589.995 105.171 594.042 106.491 597.765 109.052C601.482 111.613 604.453 115.343 606.69 120.215C608.921 125.092 609.997 130.961 609.997 137.735C609.997 145.009 608.921 151.048 606.69 155.841ZM632.394 51.8652C630.243 49.3839 627.358 48.1372 623.47 48.1372C619.582 48.1372 616.61 49.4625 614.539 52.1959C612.479 54.8359 611.402 58.8039 611.402 64.0119V101.704C606.61 96.4105 601.647 92.6079 596.61 90.0465C593.461 88.4812 589.745 87.3265 585.611 86.7399C583.21 86.4105 580.734 86.2385 578.014 86.2385C565.366 86.2385 555.121 90.7065 547.266 99.6332C539.497 108.564 535.609 120.961 535.609 136.904C535.609 144.435 536.605 151.459 538.579 157.908C540.571 164.351 543.371 169.969 547.179 174.767C550.982 179.565 555.53 183.191 560.738 185.844C565.941 188.399 571.565 189.719 577.683 189.719C580.49 189.719 583.13 189.481 585.611 188.985C587.269 188.729 588.833 188.319 590.411 187.817C594.293 186.504 597.93 184.603 601.237 182.207C604.623 179.724 608.017 176.503 611.402 172.615V175.097C611.402 179.811 612.558 183.363 614.789 185.924C617.106 188.399 619.997 189.719 623.47 189.719C627.027 189.719 629.913 188.484 632.151 186.089C634.375 183.607 635.538 179.976 635.538 175.097V62.6919C635.538 57.9732 634.455 54.3412 632.394 51.8652Z" fill="#2164F3"/>
<path fill-rule="evenodd" clip-rule="evenodd" d="M468.242 110.214C472.296 105.831 477.504 103.686 483.868 103.686H483.953C490.561 103.686 495.936 105.831 499.988 110.128C504.041 114.432 506.436 120.962 507.012 129.72H460.809C461.629 121.126 464.116 114.591 468.242 110.214ZM527.753 156.916C526.188 155.511 524.037 154.766 521.389 154.766C518.993 154.766 517.177 155.347 515.857 156.415C512.629 159.394 510.068 161.783 508.081 163.524C506.106 165.183 503.87 166.832 501.473 168.398C499.162 169.89 496.68 171.051 494.205 171.711C491.637 172.451 488.917 172.78 485.854 172.78C485.194 172.78 484.528 172.78 483.953 172.695C480.145 172.451 476.6 171.375 473.378 169.388C469.569 167.156 466.598 163.862 464.274 159.558C462.045 155.095 460.894 149.972 460.809 144.19H510.649C517.336 144.19 522.545 143.192 526.188 141.372C529.91 139.391 531.726 135.259 531.726 128.895C531.726 121.951 529.91 115.172 526.353 108.484C522.796 101.863 517.508 96.4096 510.32 92.1989C503.204 87.9869 494.694 85.9136 484.693 85.9136H483.953C476.6 85.9936 469.814 87.2416 463.786 89.5523C457.502 92.0336 452.209 95.5856 447.825 100.128C443.62 104.755 440.313 110.292 438.081 116.742C435.85 123.198 434.689 130.216 434.689 137.735C434.689 153.775 439.237 166.338 448.332 175.672C456.922 184.523 468.829 189.151 483.953 189.64C484.778 189.719 485.684 189.719 486.6 189.719C493.71 189.719 500.066 188.815 505.605 186.919C511.144 185.014 515.692 182.695 519.334 179.89C522.96 176.999 525.693 174.027 527.502 170.964C529.324 167.908 530.234 165.183 530.234 162.944C530.234 160.383 529.409 158.323 527.753 156.916" fill="#2164F3"/>
<path fill-rule="evenodd" clip-rule="evenodd" d="M366.168 110.214C370.22 105.831 375.423 103.686 381.793 103.686H381.877C388.485 103.686 393.86 105.831 397.913 110.128C402.039 114.432 404.356 120.962 405.016 129.72H358.728C359.645 121.126 362.128 114.591 366.168 110.214ZM419.4 154.766C416.919 154.766 415.103 155.347 413.783 156.415C410.639 159.394 407.999 161.783 406.012 163.524C404.027 165.183 401.88 166.832 399.477 168.398C397.087 169.89 394.685 171.051 392.124 171.711C389.641 172.451 386.829 172.78 383.773 172.78C383.119 172.78 382.459 172.78 381.877 172.695C378.071 172.451 374.519 171.375 371.291 169.388C367.58 167.156 364.517 163.862 362.292 159.558C359.969 155.095 358.813 149.972 358.728 144.19H408.653C415.267 144.19 420.475 143.192 424.193 141.372C427.829 139.391 429.651 135.259 429.651 128.895C429.651 121.951 427.916 115.172 424.357 108.484C420.805 101.863 415.432 96.4096 408.329 92.1989C401.207 87.9869 392.625 85.9136 382.709 85.9136H381.877C374.519 85.9936 367.824 87.2416 361.711 89.5523C355.42 92.0336 350.133 95.5856 345.836 100.128C341.539 104.755 338.232 110.292 336.007 116.742C333.768 123.198 332.613 130.216 332.613 137.735C332.613 153.775 337.248 166.338 346.337 175.672C354.932 184.523 366.755 189.151 381.877 189.64C382.789 189.719 383.608 189.719 384.52 189.719C391.708 189.719 397.999 188.815 403.525 186.919C409.063 185.014 413.617 182.695 417.248 179.89C420.965 176.999 423.612 174.027 425.433 170.964C427.249 167.908 428.165 165.183 428.165 162.944C428.165 160.383 427.335 158.323 425.763 156.916C424.113 155.511 421.955 154.766 419.4 154.766Z" fill="#2164F3"/>
<path fill-rule="evenodd" clip-rule="evenodd" d="M80.2748 172.78V111.951C82.0055 112.109 83.6615 112.195 85.3975 112.195C93.6628 112.195 101.439 109.964 108.047 105.996V172.78C108.047 178.484 106.727 182.695 104.159 185.513C101.603 188.319 98.2108 189.719 94.0788 189.719C90.0241 189.719 86.8028 188.319 84.1561 185.428C81.5948 182.616 80.2748 178.399 80.2748 172.78Z" fill="#2164F3"/>
<path fill-rule="evenodd" clip-rule="evenodd" d="M294.755 155.841C292.525 160.635 289.547 164.192 285.838 166.503C282.194 168.819 278.062 169.969 273.678 169.969H273.599C269.142 169.969 265.083 168.733 261.366 166.337C257.565 163.863 254.674 160.219 252.521 155.425C250.375 150.547 249.299 144.679 249.299 137.735C249.299 131.205 250.295 125.423 252.277 120.544C254.343 115.587 257.149 111.779 260.871 109.139C264.51 106.405 268.721 105.171 273.354 105.171H273.678C278.062 105.171 282.109 106.491 285.751 109.052C289.547 111.613 292.525 115.343 294.755 120.215C296.901 125.092 298.062 130.961 298.062 137.735C298.062 145.009 296.901 151.048 294.755 155.841ZM320.382 51.8652C318.229 49.3839 315.259 48.1372 311.537 48.1372C307.649 48.1372 304.671 49.4625 302.605 52.1959C300.465 54.8359 299.462 58.8039 299.462 64.0119V101.704C294.671 96.4105 289.719 92.6079 284.67 90.0465C281.455 88.4812 277.81 87.3265 273.678 86.7399C271.289 86.4105 268.806 86.2385 266.079 86.2385C253.433 86.2385 243.101 90.7065 235.331 99.6332C227.562 108.564 223.674 120.961 223.674 136.904C223.674 144.435 224.671 151.459 226.565 157.908C228.553 164.351 231.443 169.969 235.251 174.767C239.049 179.565 243.597 183.191 248.81 185.844C254.018 188.399 259.63 189.719 265.75 189.719C268.475 189.719 271.122 189.481 273.678 188.985C275.335 188.729 276.906 188.319 278.477 187.817C282.358 186.504 285.997 184.603 289.303 182.207C292.69 179.724 296.003 176.503 299.462 172.615V175.097C299.462 179.811 300.63 183.363 302.855 185.924C305.087 188.399 308.065 189.719 311.537 189.719C314.917 189.719 317.899 188.484 320.137 186.089C322.362 183.607 323.438 179.976 323.438 175.097V62.6919C323.438 57.9732 322.453 54.3412 320.382 51.8652" fill="#2164F3"/>
<path fill-rule="evenodd" clip-rule="evenodd" d="M148.796 100.128V103.276C153.337 97.3223 158.216 93.0236 163.504 90.2129C168.877 87.4863 174.996 86.0729 181.933 86.0729C188.634 86.0729 194.668 87.5649 199.956 90.4623C205.249 93.3476 209.132 97.4876 211.772 102.86C213.514 105.996 214.584 109.388 215.085 113.026C215.581 116.577 215.824 121.2 215.824 126.822V174.193C215.824 179.316 214.584 183.19 212.266 185.758C209.956 188.398 206.893 189.718 203.177 189.718C199.38 189.718 196.318 188.398 193.922 185.673C191.52 183.026 190.37 179.15 190.37 174.193V131.78C190.37 123.357 189.209 116.908 186.892 112.445C184.581 107.989 179.869 105.752 172.93 105.752C168.381 105.752 164.249 107.158 160.526 109.798C156.81 112.532 153.997 116.241 152.262 121.041C151.021 124.842 150.44 131.866 150.44 142.369V174.193C150.44 179.394 149.21 183.19 146.809 185.844C144.413 188.398 141.356 189.718 137.553 189.718C133.837 189.718 130.854 188.398 128.457 185.673C126.061 183.026 124.9 179.15 124.9 174.193V100.542C124.9 95.6703 125.976 92.0343 128.128 89.7156C130.194 87.3263 133.085 86.0729 136.809 86.0729C139.04 86.0729 141.02 86.5689 142.841 87.6516C144.662 88.7196 146.142 90.2969 147.224 92.4423C148.294 94.5889 148.796 97.1556 148.796 100.128Z" fill="#2164F3"/>
<path fill-rule="evenodd" clip-rule="evenodd" d="M80.4336 26.9857C97.6309 20.7871 117.222 21.1164 131.93 33.8444C134.663 36.4044 137.799 39.6257 139.039 43.4284C140.524 48.2231 133.838 42.9284 132.92 42.2751C128.128 39.1311 123.335 36.4911 117.963 34.6697C89.0349 25.7431 61.6736 41.8644 44.6483 66.9017C37.5456 77.9804 32.9109 89.6311 29.1096 102.444C28.6989 103.85 28.3696 105.672 27.6243 106.9C26.8776 108.319 27.2936 103.111 27.2936 102.939C27.8683 97.6511 28.9443 92.5284 30.2709 87.4057C38.1203 60.1244 55.4803 37.3964 80.4336 26.9857Z" fill="#2164F3"/>
<path fill-rule="evenodd" clip-rule="evenodd" d="M102.839 94.6745C92.5065 99.9625 79.8532 95.8359 74.6505 85.5052C69.3572 75.1679 73.4959 62.5265 83.8265 57.3172C94.1572 52.0305 106.811 56.1559 112.013 66.4932C117.301 76.8239 113.169 89.4665 102.839 94.6745Z" fill="#2164F3"/>
</svg>
