<svg width="30" height="30" viewBox="0 0 30 30" fill="none" xmlns="http://www.w3.org/2000/svg">
<rect width="30" height="30" rx="15" fill="url(#paint0_linear_265_2550)"/>
<path d="M14.9998 6.60614C17.7328 6.60614 18.0568 6.61514 19.1368 6.66614C20.1358 6.71114 20.6788 6.87914 21.0388 7.02014C21.5158 7.20614 21.8578 7.42814 22.2148 7.78514C22.5718 8.14214 22.7938 8.48414 22.9798 8.96114C23.1208 9.32114 23.2858 9.86414 23.3338 10.8631C23.3818 11.9431 23.3938 12.2671 23.3938 15.0001C23.3938 17.7331 23.3848 18.0571 23.3338 19.1371C23.2888 20.1361 23.1208 20.6791 22.9798 21.0391C22.7938 21.5161 22.5718 21.8581 22.2148 22.2151C21.8578 22.5721 21.5158 22.7941 21.0388 22.9801C20.6788 23.1211 20.1358 23.2861 19.1368 23.3341C18.0568 23.3821 17.7328 23.3941 14.9998 23.3941C12.2668 23.3941 11.9428 23.3851 10.8628 23.3341C9.86381 23.2891 9.32081 23.1211 8.96081 22.9801C8.48381 22.7941 8.14181 22.5721 7.78481 22.2151C7.42781 21.8581 7.20581 21.5161 7.01981 21.0391C6.87881 20.6791 6.71381 20.1361 6.66581 19.1371C6.61781 18.0571 6.60581 17.7331 6.60581 15.0001C6.60581 12.2671 6.61481 11.9431 6.66581 10.8631C6.71081 9.86414 6.87881 9.32114 7.01981 8.96114C7.20581 8.48414 7.42781 8.14214 7.78481 7.78514C8.14181 7.42814 8.48381 7.20614 8.96081 7.02014C9.32081 6.87914 9.86381 6.71414 10.8628 6.66614C11.9428 6.61514 12.2668 6.60614 14.9998 6.60614ZM14.9998 4.76114C12.2188 4.76114 11.8708 4.77314 10.7788 4.82414C9.68981 4.87514 8.94581 5.04614 8.29181 5.30114C7.61981 5.55914 7.04681 5.91014 6.47981 6.48014C5.90981 7.05014 5.56181 7.62014 5.29781 8.29514C5.04581 8.94614 4.87181 9.69014 4.82081 10.7821C4.76981 11.8741 4.75781 12.2221 4.75781 15.0031C4.75781 17.7841 4.76981 18.1321 4.82081 19.2241C4.87181 20.3131 5.04281 21.0571 5.29781 21.7111C5.55881 22.3801 5.90981 22.9531 6.47981 23.5201C7.04981 24.0901 7.61981 24.4381 8.29481 24.7021C8.94581 24.9541 9.68981 25.1281 10.7818 25.1791C11.8738 25.2301 12.2218 25.2421 15.0028 25.2421C17.7838 25.2421 18.1318 25.2301 19.2238 25.1791C20.3128 25.1281 21.0568 24.9571 21.7108 24.7021C22.3798 24.4411 22.9528 24.0901 23.5198 23.5201C24.0898 22.9501 24.4378 22.3801 24.7018 21.7051C24.9538 21.0541 25.1278 20.3101 25.1788 19.2181C25.2298 18.1261 25.2418 17.7781 25.2418 14.9971C25.2418 12.2161 25.2298 11.8681 25.1788 10.7761C25.1278 9.68714 24.9568 8.94314 24.7018 8.28914C24.4408 7.62014 24.0898 7.04714 23.5198 6.48014C22.9498 5.91014 22.3798 5.56214 21.7048 5.29814C21.0538 5.04614 20.3098 4.87214 19.2178 4.82114C18.1288 4.77314 17.7808 4.76114 14.9998 4.76114Z" fill="white"/>
<path d="M14.9992 9.74115C12.0952 9.74115 9.74023 12.0961 9.74023 15.0001C9.74023 17.9041 12.0952 20.2591 14.9992 20.2591C17.9032 20.2591 20.2582 17.9041 20.2582 15.0001C20.2582 12.0961 17.9032 9.74115 14.9992 9.74115ZM14.9992 18.4141C13.1152 18.4141 11.5852 16.8871 11.5852 15.0001C11.5852 13.1131 13.1152 11.5861 14.9992 11.5861C16.8832 11.5861 18.4132 13.1131 18.4132 15.0001C18.4132 16.8871 16.8832 18.4141 14.9992 18.4141Z" fill="white"/>
<path d="M20.4663 10.764C21.1456 10.764 21.6963 10.2134 21.6963 9.53405C21.6963 8.85474 21.1456 8.30405 20.4663 8.30405C19.787 8.30405 19.2363 8.85474 19.2363 9.53405C19.2363 10.2134 19.787 10.764 20.4663 10.764Z" fill="white"/>
<defs>
<linearGradient id="paint0_linear_265_2550" x1="4.39339" y1="25.6066" x2="25.6066" y2="4.39339" gradientUnits="userSpaceOnUse">
<stop stop-color="#FFD521"/>
<stop offset="0.0551048" stop-color="#FFD020"/>
<stop offset="0.1241" stop-color="#FEC01E"/>
<stop offset="0.2004" stop-color="#FCA71B"/>
<stop offset="0.2821" stop-color="#FA8316"/>
<stop offset="0.3681" stop-color="#F85510"/>
<stop offset="0.4563" stop-color="#F51E09"/>
<stop offset="0.5" stop-color="#F30005"/>
<stop offset="0.5035" stop-color="#F20007"/>
<stop offset="0.5966" stop-color="#E1003B"/>
<stop offset="0.6879" stop-color="#D30067"/>
<stop offset="0.7757" stop-color="#C70088"/>
<stop offset="0.8589" stop-color="#BF00A0"/>
<stop offset="0.9357" stop-color="#BB00AF"/>
<stop offset="1" stop-color="#B900B4"/>
</linearGradient>
</defs>
</svg>
