<svg width="100" height="100" viewBox="0 0 100 100" fill="none" xmlns="http://www.w3.org/2000/svg">
<path d="M78.8333 20.8748C78 18.4165 75.6667 16.6665 72.9167 16.6665H27.0833C24.3333 16.6665 22.0417 18.4165 21.1667 20.8748L12.5 45.8332V79.1665C12.5 81.4582 14.375 83.3332 16.6667 83.3332H20.8333C23.125 83.3332 25 81.4582 25 79.1665V74.9998H75V79.1665C75 81.4582 76.875 83.3332 79.1667 83.3332H83.3333C85.625 83.3332 87.5 81.4582 87.5 79.1665V45.8332L78.8333 20.8748ZM28.5417 24.9998H71.4167L75.75 37.4998H24.2083L28.5417 24.9998ZM79.1667 66.6665H20.8333V47.2498L21.3333 45.8332H78.7083L79.1667 47.2498V66.6665Z" fill="#FFA800"/>
<path d="M31.25 62.4998C34.7018 62.4998 37.5 59.7016 37.5 56.2498C37.5 52.7981 34.7018 49.9998 31.25 49.9998C27.7982 49.9998 25 52.7981 25 56.2498C25 59.7016 27.7982 62.4998 31.25 62.4998Z" fill="#FFA800"/>
<path d="M68.75 62.4998C72.2018 62.4998 75 59.7016 75 56.2498C75 52.7981 72.2018 49.9998 68.75 49.9998C65.2982 49.9998 62.5 52.7981 62.5 56.2498C62.5 59.7016 65.2982 62.4998 68.75 62.4998Z" fill="#FFA800"/>
</svg>
