<svg width="30" height="30" viewBox="0 0 30 30" fill="none" xmlns="http://www.w3.org/2000/svg">
<rect width="30" height="30" rx="15" fill="#24ACFF"/>
<path d="M11.5199 22.6199C18.5939 22.6199 22.4669 16.7579 22.4669 11.6729C22.4669 11.5079 22.4669 11.3399 22.4549 11.1749C23.2079 10.6289 23.8589 9.95687 24.3749 9.18287C23.6729 9.49487 22.9289 9.69887 22.1669 9.78887C22.9709 9.30887 23.5709 8.55287 23.8589 7.66187C23.1029 8.10887 22.2779 8.42687 21.4169 8.59487C19.9589 7.04687 17.5229 6.97187 15.9749 8.42687C14.9759 9.36587 14.5529 10.7669 14.8619 12.1019C11.7689 11.9459 8.88586 10.4849 6.93286 8.08187C5.91286 9.83987 6.43186 12.0869 8.12386 13.2179C7.51186 13.1999 6.91186 13.0349 6.37786 12.7379C6.37786 12.7529 6.37786 12.7709 6.37786 12.7859C6.37786 14.6159 7.66786 16.1939 9.46486 16.5569C8.89786 16.7099 8.30386 16.7339 7.72786 16.6229C8.23186 18.1889 9.67486 19.2629 11.3219 19.2959C9.95986 20.3669 8.27686 20.9489 6.54586 20.9459C6.23986 20.9459 5.93386 20.9279 5.63086 20.8889C7.38286 22.0199 9.43186 22.6199 11.5199 22.6169" fill="white"/>
</svg>
