<svg width="30" height="30" viewBox="0 0 30 30" fill="none" xmlns="http://www.w3.org/2000/svg">
<rect width="30" height="30" rx="15" fill="#FF0000"/>
<path d="M24.5451 10.1731C24.3171 9.3091 23.6421 8.6311 22.7841 8.4001C21.2301 7.9801 15.0021 7.9801 15.0021 7.9801C15.0021 7.9801 8.77106 7.9801 7.22006 8.4001C6.36206 8.6311 5.68706 9.3091 5.45906 10.1731C5.03906 11.7361 5.03906 15.0001 5.03906 15.0001C5.03906 15.0001 5.03906 18.2641 5.45606 19.8271C5.68406 20.6911 6.35906 21.3691 7.21706 21.6001C8.77106 22.0201 14.9991 22.0201 14.9991 22.0201C14.9991 22.0201 21.2301 22.0201 22.7811 21.6001C23.6391 21.3691 24.3141 20.6911 24.5421 19.8271C24.9591 18.2641 24.9591 15.0001 24.9591 15.0001C24.9591 15.0001 24.9591 11.7361 24.5451 10.1731ZM12.9621 17.9611V12.0391L18.1671 15.0001L12.9621 17.9611Z" fill="white"/>
</svg>
